<?xml version="1.0" standalone="no"?>
<!DOCTYPE svg PUBLIC "-//W3C//DTD SVG 1.1//EN" "http://www.w3.org/Graphics/SVG/1.1/DTD/svg11.dtd" >
<svg xmlns="http://www.w3.org/2000/svg" xmlns:xlink="http://www.w3.org/1999/xlink" version="1.1">
<metadata>
Created by FontForge 20170924 at Mon Sep 29 12:34:21 2014
 By www-data
Copyright (c) 2014 by Tele2. All rights reserved. Designed by Letters from Sweden &#38; Kurppa Hosk.
</metadata>
<defs>
<font id="Tele2SlabWebBold" horiz-adv-x="580" >
  <font-face 
    font-family="Tele2SlabWebBold"
    font-weight="700"
    font-stretch="normal"
    units-per-em="1000"
    panose-1="2 0 8 0 0 0 0 0 0 0"
    ascent="750"
    descent="-250"
    x-height="538"
    cap-height="709"
    bbox="-200 -259 1314 939.069"
    underline-thickness="0"
    underline-position="0"
    unicode-range="U+000D-FB02"
  />
<missing-glyph horiz-adv-x="694" 
d="M100 -150v1000h494v-1000h-494zM133 -116h428v934h-428v-934z" />
    <glyph glyph-name="fi" unicode="fi" horiz-adv-x="628" 
d="M602 0h-241v98h52v345h-189v-345h65v-98h-257v98h55v345h-67v95h67v62q0 72 40 111t115 39q52 0 80 -12v-95q-18 5 -39 5q-29 0 -44 -14.5t-15 -47.5v-48h326v-440h52v-98zM401 617v121h149v-121h-149z" />
    <glyph glyph-name="fl" unicode="fl" horiz-adv-x="618" 
d="M242 750q38 0 67 -8v-96q-16 2 -26 2q-29 0 -44 -14.5t-15 -47.5v-48h85v-95h-85v-345h65v-98h-257v98h55v345h-67v95h67v62q0 72 40 111t115 39zM594 0h-241v98h52v542h-52v98h189v-640h52v-98z" />
    <glyph glyph-name="radical" unicode="&#x3a;&#x2d;" horiz-adv-x="712" 
d="M80 385v153h157v-153h-157zM310 216v116h362v-116h-362zM80 0v153h157v-153h-157z" />
    <glyph glyph-name="f_j.liga" unicode="fj" horiz-adv-x="612" 
d="M542 -62q0 -72 -39.5 -111t-113.5 -39q-50 0 -82 12v94q17 -4 40 -4q29 0 43.5 14t14.5 45v494h-181v-345h65v-98h-257v98h55v345h-67v95h67v62q0 72 40 111t115 39q52 0 80 -12v-95q-18 5 -39 5q-29 0 -44 -14.5t-15 -47.5v-48h318v-600zM542 617h-149v121h149v-121z
" />
    <glyph glyph-name=".notdef" horiz-adv-x="694" 
d="M100 -150v1000h494v-1000h-494zM133 -116h428v934h-428v-934z" />
    <glyph glyph-name=".null" horiz-adv-x="0" 
 />
    <glyph glyph-name=".null" horiz-adv-x="0" 
 />
    <glyph glyph-name="nonmarkingreturn" unicode="&#xd;" horiz-adv-x="190" 
 />
    <glyph glyph-name="space" unicode=" " horiz-adv-x="190" 
 />
    <glyph glyph-name="A" unicode="A" horiz-adv-x="655" 
d="M640 0h-255v102h61l-27 109h-195l-27 -109h59v-102h-241v102h51l137 505h-60v102h366v-102h-55l135 -505h51v-102zM322 611l-73 -298h146z" />
    <glyph glyph-name="B" unicode="B" horiz-adv-x="607" 
d="M577 199q0 -97 -60.5 -148t-175.5 -51h-305v102h62v505h-62v102h294q224 0 224 -174q0 -60 -31 -101t-87 -60q68 -18 104.5 -62t36.5 -113zM312 421q49 0 77 22t28 74q0 90 -105 90h-70v-186h70zM433 210q0 55 -32.5 80.5t-89.5 25.5h-69v-214h69q57 0 89.5 26.5
t32.5 81.5z" />
    <glyph glyph-name="C" unicode="C" horiz-adv-x="610" 
d="M576 489l-117 -15q-14 64 -44 99.5t-83 35.5q-142 0 -142 -255q0 -122 35 -185.5t106 -63.5q63 0 93 44t38 126l120 -10q-3 -134 -67.5 -207t-186.5 -73q-148 0 -220 98.5t-72 270.5q0 117 35.5 200t101.5 126.5t157 43.5q124 0 183 -68t63 -167z" />
    <glyph glyph-name="D" unicode="D" horiz-adv-x="644" 
d="M608 355q0 -108 -33.5 -188t-97.5 -123.5t-153 -43.5h-288v102h62v505h-62v102h288q89 0 153 -43t97.5 -123t33.5 -188zM454 355q0 133 -40 192.5t-110 59.5h-62v-505h62q70 0 110 60t40 193z" />
    <glyph glyph-name="E" unicode="E" horiz-adv-x="589" 
d="M429 485l-10 122h-177v-183h177v-106h-177v-216h177l10 137h113v-239h-506v102h62v505h-62v102h506v-224h-113z" />
    <glyph glyph-name="F" unicode="F" horiz-adv-x="557" 
d="M409 485l-10 122h-157v-198h190v-106h-190v-201h67v-102h-273v102h62v505h-62v102h486v-224h-113z" />
    <glyph glyph-name="G" unicode="G" horiz-adv-x="645" 
d="M626 287h-46v-287h-132v63q-24 -36 -60.5 -57t-92.5 -21q-83 0 -141 45.5t-88 129t-30 194.5q0 117 36 200t103 126.5t158 43.5q120 0 181.5 -59.5t68.5 -152.5l-117 -16q-16 56 -47 84.5t-82 28.5q-72 0 -109.5 -65t-37.5 -190q0 -121 38.5 -187.5t112.5 -66.5
q55 0 95 35v152h-102v102h292v-102z" />
    <glyph glyph-name="H" unicode="H" horiz-adv-x="703" 
d="M605 102h62v-102h-268v102h62v214h-219v-214h62v-102h-268v102h62v505h-62v102h268v-102h-62v-189h219v189h-62v102h268v-102h-62v-505z" />
    <glyph glyph-name="I" unicode="I" horiz-adv-x="340" 
d="M304 102v-102h-268v102h62v505h-62v102h268v-102h-62v-505h62z" />
    <glyph glyph-name="J" unicode="J" horiz-adv-x="459" 
d="M365 607v-412q0 -108 -55 -155.5t-148 -47.5q-87 0 -136 30v105q45 -20 102 -20q46 0 69.5 23.5t23.5 81.5v395h-73v102h279v-102h-62z" />
    <glyph glyph-name="K" unicode="K" horiz-adv-x="647" 
d="M631 0h-161l-228 356v-254h62v-102h-268v102h62v505h-62v102h268v-102h-62v-228l183 228h-42v102h241v-102h-51l-189 -223l186 -282h61v-102z" />
    <glyph glyph-name="L" unicode="L" horiz-adv-x="533" 
d="M36 0v102h62v505h-62v102h278v-102h-72v-505h133l10 137h113v-239h-462z" />
    <glyph glyph-name="M" unicode="M" horiz-adv-x="876" 
d="M778 102h62v-102h-258v102h62v501l-169 -603h-92l-163 595v-493h43v-102h-227v102h61v505h-61v102h280l121 -460l118 460h285v-102h-62v-505z" />
    <glyph glyph-name="N" unicode="N" horiz-adv-x="708" 
d="M676 607h-62v-607h-160l-232 528v-426h62v-102h-248v102h62v505h-62v102h232l222 -512v410h-62v102h248v-102z" />
    <glyph glyph-name="O" unicode="O" horiz-adv-x="653" 
d="M617 354q0 -113 -34 -196.5t-99.5 -128t-156.5 -44.5q-92 0 -157.5 44.5t-99.5 128t-34 196.5q0 114 34 197t99.5 128t157.5 45q91 0 156.5 -45t99.5 -128.5t34 -196.5zM190 354q0 -124 36 -189t101 -65t100.5 65t35.5 189q0 125 -35.5 190t-100.5 65t-101 -65t-36 -190z
" />
    <glyph glyph-name="P" unicode="P" horiz-adv-x="581" 
d="M565 495q0 -105 -63 -162t-171 -57h-89v-174h70v-102h-276v102h62v505h-62v102h295q108 0 171 -55t63 -159zM421 493q0 57 -29 85.5t-84 28.5h-66v-229h66q55 0 84 29t29 86z" />
    <glyph glyph-name="Q" unicode="Q" horiz-adv-x="653" 
d="M543 -37q35 0 65 10v-104q-41 -18 -94 -18q-68 0 -119.5 33t-73.5 101q-90 1 -154 46.5t-97.5 128t-33.5 194.5q0 114 34 197t99.5 128t157.5 45q91 0 156.5 -45t99.5 -128.5t34 -196.5q0 -130 -44.5 -219t-127.5 -126q13 -25 37 -35.5t61 -10.5zM327 100q65 0 100.5 65
t35.5 189q0 125 -35.5 190t-100.5 65t-101 -65t-36 -190q0 -124 36 -189t101 -65z" />
    <glyph glyph-name="R" unicode="R" horiz-adv-x="620" 
d="M599 0h-150l-207 355v-253h62v-102h-268v102h62v505h-62v102h308q103 0 167 -50.5t64 -149.5q0 -80 -45 -130.5t-115 -66.5l131 -210h53v-102zM242 395h76q53 0 83 27.5t30 78.5t-30 78.5t-83 27.5h-76v-212z" />
    <glyph glyph-name="S" unicode="S" horiz-adv-x="551" 
d="M513 515l-113 -15q-26 112 -127 112q-45 0 -68.5 -21.5t-23.5 -53.5q0 -28 20 -48t73 -40l59 -22q99 -37 146 -87t47 -134q0 -108 -66.5 -164.5t-177.5 -56.5q-113 0 -185.5 55.5t-76.5 188.5l116 14q11 -68 46 -105.5t102 -37.5q50 0 75.5 23.5t25.5 63.5
q0 37 -25.5 61.5t-93.5 50.5l-66 25q-78 29 -118.5 74t-40.5 119q0 58 26.5 105t79.5 74.5t130 27.5q102 0 167.5 -50.5t68.5 -158.5z" />
    <glyph glyph-name="T" unicode="T" horiz-adv-x="630" 
d="M484 475l-10 132h-87v-505h68v-102h-280v102h68v505h-87l-10 -132h-113v234h564v-234h-113z" />
    <glyph glyph-name="U" unicode="U" horiz-adv-x="681" 
d="M587 233q0 -122 -53.5 -185t-190.5 -63t-193 63.5t-56 184.5v374h-62v102h268v-102h-62v-366q0 -71 22 -106t83 -35t83 35t22 106v366h-62v102h263v-102h-62v-374z" />
    <glyph glyph-name="V" unicode="V" horiz-adv-x="628" 
d="M569 607l-166 -607h-181l-164 607h-42v102h252v-102h-61l115 -477l116 477h-58v102h233v-102h-44z" />
    <glyph glyph-name="W" unicode="W" horiz-adv-x="928" 
d="M864 607l-122 -607h-165l-110 502l-111 -502h-174l-117 607h-40v102h245v-102h-62l78 -453l120 555h133l120 -555l79 453h-61v102h226v-102h-39z" />
    <glyph glyph-name="X" unicode="X" horiz-adv-x="652" 
d="M632 0h-259v102h59l-110 190l-111 -190h55v-102h-246v102h44l176 261l-161 244h-44v102h249v-102h-53l101 -171l102 171h-51v102h238v-102h-44l-163 -242l172 -263h46v-102z" />
    <glyph glyph-name="Y" unicode="Y" horiz-adv-x="599" 
d="M583 607h-44l-166 -315v-190h65v-102h-274v102h65v188l-165 317h-48v102h245v-102h-48l97 -199l95 199h-45v102h223v-102z" />
    <glyph glyph-name="Z" unicode="Z" horiz-adv-x="573" 
d="M418 102l10 122h113v-224h-511v102l350 505h-204l-10 -122h-113v224h488v-102l-349 -505h226z" />
    <glyph glyph-name="Agrave" unicode="&#xc0;" horiz-adv-x="655" 
d="M640 0h-255v102h61l-27 109h-195l-27 -109h59v-102h-241v102h51l137 505h-60v102h366v-102h-55l135 -505h51v-102zM322 611l-73 -298h146zM269 771l-133 153h159l103 -153h-129z" />
    <glyph glyph-name="Aacute" unicode="&#xc1;" horiz-adv-x="655" 
d="M640 0h-255v102h61l-27 109h-195l-27 -109h59v-102h-241v102h51l137 505h-60v102h366v-102h-55l135 -505h51v-102zM322 611l-73 -298h146zM250 771l103 153h159l-133 -153h-129z" />
    <glyph glyph-name="Acircumflex" unicode="&#xc2;" horiz-adv-x="655" 
d="M640 0h-255v102h61l-27 109h-195l-27 -109h59v-102h-241v102h51l137 505h-60v102h366v-102h-55l135 -505h51v-102zM322 611l-73 -298h146zM389 771l-65 91l-65 -91h-107l94 153h156l94 -153h-107z" />
    <glyph glyph-name="Atilde" unicode="&#xc3;" horiz-adv-x="655" 
d="M640 0h-255v102h61l-27 109h-195l-27 -109h59v-102h-241v102h51l137 505h-60v102h366v-102h-55l135 -505h51v-102zM322 611l-73 -298h146zM339 878q18 -9 30.5 -13.5t24.5 -4.5q18 0 26 10.5t9 29.5h77q-5 -64 -31.5 -96.5t-71.5 -32.5q-22 0 -42 6t-46 17
q-16 7 -32.5 12.5t-29.5 5.5q-16 0 -25 -11t-10 -27h-77q5 59 33 94t74 35q23 0 41.5 -6t49.5 -19z" />
    <glyph glyph-name="Adieresis" unicode="&#xc4;" horiz-adv-x="655" 
d="M640 0h-255v102h61l-27 109h-195l-27 -109h59v-102h-241v102h51l137 505h-60v102h366v-102h-55l135 -505h51v-102zM322 611l-73 -298h146zM157 763v121h129v-121h-129zM362 763v121h129v-121h-129z" />
    <glyph glyph-name="Amacron" unicode="&#x100;" horiz-adv-x="655" 
d="M640 0h-255v102h61l-27 109h-195l-27 -109h59v-102h-241v102h51l137 505h-60v102h366v-102h-55l135 -505h51v-102zM322 611l-73 -298h146zM168 787v97h311v-97h-311z" />
    <glyph glyph-name="Abreve" unicode="&#x102;" horiz-adv-x="655" 
d="M640 0h-255v102h61l-27 109h-195l-27 -109h59v-102h-241v102h51l137 505h-60v102h366v-102h-55l135 -505h51v-102zM322 611l-73 -298h146zM324 759q-78 0 -122.5 39.5t-44.5 108.5h97q0 -33 18 -52t52 -19t52 19t18 52h97q0 -69 -45 -108.5t-122 -39.5z" />
    <glyph glyph-name="Aring" unicode="&#xc5;" horiz-adv-x="655" 
d="M640 0h-255v102h61l-27 109h-195l-27 -109h59v-102h-241v102h51l137 505h-60v102h118q-24 16 -38.5 42t-14.5 56q0 49 34.5 83t84.5 34q51 0 85 -33.5t34 -83.5q0 -31 -14 -56.5t-39 -41.5h116v-102h-55l135 -505h51v-102zM270 807q0 -25 16.5 -41.5t40.5 -16.5
t40.5 16.5t16.5 41.5t-16.5 41.5t-40.5 16.5t-40.5 -16.5t-16.5 -41.5zM322 611l-73 -298h146z" />
    <glyph glyph-name="Aogonek" unicode="&#x104;" horiz-adv-x="655" 
d="M529 -114q0 -20 14.5 -28.5t45.5 -8.5q27 0 51 8v-72q-34 -17 -87 -17q-54 0 -88 23t-34 73q0 80 100 136h-146v102h61l-27 109h-195l-27 -109h59v-102h-241v102h51l137 505h-60v102h366v-102h-55l135 -505h51v-102q-59 -33 -85 -60.5t-26 -53.5zM322 611l-73 -298h146z
" />
    <glyph glyph-name="AE" unicode="&#xc6;" horiz-adv-x="908" 
d="M561 427h164v-105h-164v-220h177l10 137h113v-239h-506v102h62v111h-162l-46 -111h62v-102h-256v102h62l215 505h-67v102h636v-224h-113l-10 122h-177v-180zM417 604l-120 -289h120v289z" />
    <glyph glyph-name="Cacute" unicode="&#x106;" horiz-adv-x="610" 
d="M576 489l-117 -15q-14 64 -44 99.5t-83 35.5q-142 0 -142 -255q0 -122 35 -185.5t106 -63.5q63 0 93 44t38 126l120 -10q-3 -134 -67.5 -207t-186.5 -73q-148 0 -220 98.5t-72 270.5q0 117 35.5 200t101.5 126.5t157 43.5q124 0 183 -68t63 -167zM252 771l103 153h159
l-133 -153h-129z" />
    <glyph glyph-name="Ccaron" unicode="&#x10c;" horiz-adv-x="610" 
d="M576 489l-117 -15q-14 64 -44 99.5t-83 35.5q-142 0 -142 -255q0 -122 35 -185.5t106 -63.5q63 0 93 44t38 126l120 -10q-3 -134 -67.5 -207t-186.5 -73q-148 0 -220 98.5t-72 270.5q0 117 35.5 200t101.5 126.5t157 43.5q124 0 183 -68t63 -167zM253 771l-94 153h107
l65 -91l65 91h107l-94 -153h-156z" />
    <glyph glyph-name="Cdotaccent" unicode="&#x10a;" horiz-adv-x="610" 
d="M576 489l-117 -15q-14 64 -44 99.5t-83 35.5q-142 0 -142 -255q0 -122 35 -185.5t106 -63.5q63 0 93 44t38 126l120 -10q-3 -134 -67.5 -207t-186.5 -73q-148 0 -220 98.5t-72 270.5q0 117 35.5 200t101.5 126.5t157 43.5q124 0 183 -68t63 -167zM253 763v121h149v-121
h-149z" />
    <glyph glyph-name="Ccedilla" unicode="&#xc7;" horiz-adv-x="610" 
d="M351 -14l-19 -31q54 -10 83.5 -36t29.5 -68q0 -51 -35 -78t-89 -27q-47 0 -81 13.5t-55 31.5l28 53q20 -13 46 -21t50 -8q48 0 48 36q0 28 -35 40t-87 16v6l41 76q-121 17 -180.5 113.5t-59.5 251.5q0 117 35.5 200t101.5 126.5t157 43.5q124 0 183 -68t63 -167l-117 -15
q-14 64 -44 99.5t-83 35.5q-142 0 -142 -255q0 -122 35 -185.5t106 -63.5q63 0 93 44t38 126l120 -10q-3 -127 -61.5 -199.5t-169.5 -79.5z" />
    <glyph glyph-name="Dcaron" unicode="&#x10e;" horiz-adv-x="644" 
d="M608 355q0 -108 -33.5 -188t-97.5 -123.5t-153 -43.5h-288v102h62v505h-62v102h288q89 0 153 -43t97.5 -123t33.5 -188zM454 355q0 133 -40 192.5t-110 59.5h-62v-505h62q70 0 110 60t40 193zM229 771l-94 153h107l65 -91l65 91h107l-94 -153h-156z" />
    <glyph glyph-name="Dcroat" unicode="&#x110;" horiz-adv-x="654" 
d="M618 355q0 -108 -33.5 -188t-97.5 -123.5t-153 -43.5h-298v102h62v212h-62v102h62v191h-62v102h298q89 0 153 -43t97.5 -123t33.5 -188zM464 355q0 133 -40 192.5t-110 59.5h-72v-191h134v-102h-134v-212h72q70 0 110 60t40 193z" />
    <glyph glyph-name="Egrave" unicode="&#xc8;" horiz-adv-x="589" 
d="M429 485l-10 122h-177v-183h177v-106h-177v-216h177l10 137h113v-239h-506v102h62v505h-62v102h506v-224h-113zM244 771l-133 153h159l103 -153h-129z" />
    <glyph glyph-name="Eacute" unicode="&#xc9;" horiz-adv-x="589" 
d="M429 485l-10 122h-177v-183h177v-106h-177v-216h177l10 137h113v-239h-506v102h62v505h-62v102h506v-224h-113zM225 771l103 153h159l-133 -153h-129z" />
    <glyph glyph-name="Ecircumflex" unicode="&#xca;" horiz-adv-x="589" 
d="M429 485l-10 122h-177v-183h177v-106h-177v-216h177l10 137h113v-239h-506v102h62v505h-62v102h506v-224h-113zM364 771l-65 91l-65 -91h-107l94 153h156l94 -153h-107z" />
    <glyph glyph-name="Ecaron" unicode="&#x11a;" horiz-adv-x="589" 
d="M429 485l-10 122h-177v-183h177v-106h-177v-216h177l10 137h113v-239h-506v102h62v505h-62v102h506v-224h-113zM226 771l-94 153h107l65 -91l65 91h107l-94 -153h-156z" />
    <glyph glyph-name="Edieresis" unicode="&#xcb;" horiz-adv-x="589" 
d="M429 485l-10 122h-177v-183h177v-106h-177v-216h177l10 137h113v-239h-506v102h62v505h-62v102h506v-224h-113zM132 763v121h129v-121h-129zM337 763v121h129v-121h-129z" />
    <glyph glyph-name="Emacron" unicode="&#x112;" horiz-adv-x="589" 
d="M429 485l-10 122h-177v-183h177v-106h-177v-216h177l10 137h113v-239h-506v102h62v505h-62v102h506v-224h-113zM143 787v97h311v-97h-311z" />
    <glyph glyph-name="Edotaccent" unicode="&#x116;" horiz-adv-x="589" 
d="M429 485l-10 122h-177v-183h177v-106h-177v-216h177l10 137h113v-239h-506v102h62v505h-62v102h506v-224h-113zM226 763v121h149v-121h-149z" />
    <glyph glyph-name="Eogonek" unicode="&#x118;" horiz-adv-x="589" 
d="M242 424h177v-106h-177v-216h177l10 137h113v-239q-59 -33 -85 -60.5t-26 -53.5q0 -20 14.5 -28.5t45.5 -8.5q27 0 51 8v-72q-34 -17 -87 -17q-54 0 -88 23t-34 73q0 80 100 136h-397v102h62v505h-62v102h506v-224h-113l-10 122h-177v-183z" />
    <glyph glyph-name="Gbreve" unicode="&#x11e;" horiz-adv-x="645" 
d="M626 287h-46v-287h-132v63q-24 -36 -60.5 -57t-92.5 -21q-83 0 -141 45.5t-88 129t-30 194.5q0 117 36 200t103 126.5t158 43.5q120 0 181.5 -59.5t68.5 -152.5l-117 -16q-16 56 -47 84.5t-82 28.5q-72 0 -109.5 -65t-37.5 -190q0 -121 38.5 -187.5t112.5 -66.5
q55 0 95 35v152h-102v102h292v-102zM340 759q-78 0 -122.5 39.5t-44.5 108.5h97q0 -33 18 -52t52 -19t52 19t18 52h97q0 -69 -45 -108.5t-122 -39.5z" />
    <glyph glyph-name="Gdotaccent" unicode="&#x120;" horiz-adv-x="645" 
d="M626 287h-46v-287h-132v63q-24 -36 -60.5 -57t-92.5 -21q-83 0 -141 45.5t-88 129t-30 194.5q0 117 36 200t103 126.5t158 43.5q120 0 181.5 -59.5t68.5 -152.5l-117 -16q-16 56 -47 84.5t-82 28.5q-72 0 -109.5 -65t-37.5 -190q0 -121 38.5 -187.5t112.5 -66.5
q55 0 95 35v152h-102v102h292v-102zM267 763v121h149v-121h-149z" />
    <glyph glyph-name="Gcommaaccent" unicode="&#x122;" horiz-adv-x="645" 
d="M626 287h-46v-287h-132v63q-24 -36 -60.5 -57t-92.5 -21q-83 0 -141 45.5t-88 129t-30 194.5q0 117 36 200t103 126.5t158 43.5q120 0 181.5 -59.5t68.5 -152.5l-117 -16q-16 56 -47 84.5t-82 28.5q-72 0 -109.5 -65t-37.5 -190q0 -121 38.5 -187.5t112.5 -66.5
q55 0 95 35v152h-102v102h292v-102zM353 -259h-70l60 89h-64v116h133v-116z" />
    <glyph glyph-name="Hbar" unicode="&#x126;" horiz-adv-x="703" 
d="M605 554h61v-82h-61v-370h62v-102h-268v102h62v214h-219v-214h62v-102h-268v102h62v370h-62v82h62v53h-62v102h268v-102h-62v-53h219v53h-62v102h268v-102h-62v-53zM242 472v-54h219v54h-219z" />
    <glyph glyph-name="Igrave" unicode="&#xcc;" horiz-adv-x="340" 
d="M304 102v-102h-268v102h62v505h-62v102h268v-102h-62v-505h62zM116 771l-133 153h159l103 -153h-129z" />
    <glyph glyph-name="Iacute" unicode="&#xcd;" horiz-adv-x="340" 
d="M304 102v-102h-268v102h62v505h-62v102h268v-102h-62v-505h62zM96 771l103 153h159l-133 -153h-129z" />
    <glyph glyph-name="Icircumflex" unicode="&#xce;" horiz-adv-x="340" 
d="M304 102v-102h-268v102h62v505h-62v102h268v-102h-62v-505h62zM236 771l-65 91l-65 -91h-107l94 153h156l94 -153h-107z" />
    <glyph glyph-name="Idieresis" unicode="&#xcf;" horiz-adv-x="340" 
d="M304 102v-102h-268v102h62v505h-62v102h268v-102h-62v-505h62zM4 763v121h129v-121h-129zM209 763v121h129v-121h-129z" />
    <glyph glyph-name="Imacron" unicode="&#x12a;" horiz-adv-x="340" 
d="M304 102v-102h-268v102h62v505h-62v102h268v-102h-62v-505h62zM15 787v97h311v-97h-311z" />
    <glyph glyph-name="Iogonek" unicode="&#x12e;" horiz-adv-x="340" 
d="M242 102h62v-102q-59 -33 -85 -60.5t-26 -53.5q0 -20 14.5 -28.5t45.5 -8.5q27 0 51 8v-72q-34 -17 -87 -17q-54 0 -88 23t-34 73q0 80 100 136h-159v102h62v505h-62v102h268v-102h-62v-505z" />
    <glyph glyph-name="IJ" unicode="&#x132;" horiz-adv-x="799" 
d="M304 102v-102h-268v102h62v505h-62v102h268v-102h-62v-505h62zM705 607v-412q0 -108 -55 -155.5t-148 -47.5q-87 0 -136 30v105q45 -20 102 -20q46 0 69.5 23.5t23.5 81.5v395h-73v102h279v-102h-62z" />
    <glyph glyph-name="Kcommaaccent" unicode="&#x136;" horiz-adv-x="647" 
d="M631 0h-161l-228 356v-254h62v-102h-268v102h62v505h-62v102h268v-102h-62v-228l183 228h-42v102h241v-102h-51l-189 -223l186 -282h61v-102zM331 -259h-70l60 89h-64v116h133v-116z" />
    <glyph glyph-name="Lacute" unicode="&#x139;" horiz-adv-x="533" 
d="M36 0v102h62v505h-62v102h278v-102h-72v-505h133l10 137h113v-239h-462zM113 771l103 153h159l-133 -153h-129z" />
    <glyph glyph-name="Lcaron" unicode="&#x13d;" horiz-adv-x="533" 
d="M36 0v102h62v505h-62v102h278v-102h-72v-505h133l10 137h113v-239h-462zM441 449h-65l56 129h-59v132h131v-132z" />
    <glyph glyph-name="Lcommaaccent" unicode="&#x13b;" horiz-adv-x="533" 
d="M36 0v102h62v505h-62v102h278v-102h-72v-505h133l10 137h113v-239h-462zM294 -259h-70l60 89h-64v116h133v-116z" />
    <glyph glyph-name="Lslash" unicode="&#x141;" horiz-adv-x="533" 
d="M498 0h-462v102h62v128l-73 -40v113l73 40v264h-62v102h278v-102h-72v-189l147 81v-113l-147 -81v-203h133l10 137h113v-239z" />
    <glyph glyph-name="Ldot" unicode="&#x13f;" horiz-adv-x="533" 
d="M36 0v102h62v505h-62v102h278v-102h-72v-505h133l10 137h113v-239h-462zM315.4 307.101v143.82h147.58v-143.82h-147.58z" />
    <glyph glyph-name="Nacute" unicode="&#x143;" horiz-adv-x="708" 
d="M676 607h-62v-607h-160l-232 528v-426h62v-102h-248v102h62v505h-62v102h232l222 -512v410h-62v102h248v-102zM285 771l103 153h159l-133 -153h-129z" />
    <glyph glyph-name="Ncaron" unicode="&#x147;" horiz-adv-x="708" 
d="M676 607h-62v-607h-160l-232 528v-426h62v-102h-248v102h62v505h-62v102h232l222 -512v410h-62v102h248v-102zM286 771l-94 153h107l65 -91l65 91h107l-94 -153h-156z" />
    <glyph glyph-name="Ntilde" unicode="&#xd1;" horiz-adv-x="708" 
d="M676 607h-62v-607h-160l-232 528v-426h62v-102h-248v102h62v505h-62v102h232l222 -512v410h-62v102h248v-102zM374 878q18 -9 30.5 -13.5t24.5 -4.5q18 0 26 10.5t9 29.5h77q-5 -64 -31.5 -96.5t-71.5 -32.5q-22 0 -42 6t-46 17q-16 7 -32.5 12.5t-29.5 5.5
q-16 0 -25 -11t-10 -27h-77q5 59 33 94t74 35q23 0 41.5 -6t49.5 -19z" />
    <glyph glyph-name="Ncommaaccent" unicode="&#x145;" horiz-adv-x="708" 
d="M676 607h-62v-607h-160l-232 528v-426h62v-102h-248v102h62v505h-62v102h232l222 -512v410h-62v102h248v-102zM361 -259h-70l60 89h-64v116h133v-116z" />
    <glyph glyph-name="Ograve" unicode="&#xd2;" horiz-adv-x="653" 
d="M617 354q0 -113 -34 -196.5t-99.5 -128t-156.5 -44.5q-92 0 -157.5 44.5t-99.5 128t-34 196.5q0 114 34 197t99.5 128t157.5 45q91 0 156.5 -45t99.5 -128.5t34 -196.5zM190 354q0 -124 36 -189t101 -65t100.5 65t35.5 189q0 125 -35.5 190t-100.5 65t-101 -65t-36 -190z
M272 771l-133 153h159l103 -153h-129z" />
    <glyph glyph-name="Oacute" unicode="&#xd3;" horiz-adv-x="653" 
d="M617 354q0 -113 -34 -196.5t-99.5 -128t-156.5 -44.5q-92 0 -157.5 44.5t-99.5 128t-34 196.5q0 114 34 197t99.5 128t157.5 45q91 0 156.5 -45t99.5 -128.5t34 -196.5zM190 354q0 -124 36 -189t101 -65t100.5 65t35.5 189q0 125 -35.5 190t-100.5 65t-101 -65t-36 -190z
M253 771l103 153h159l-133 -153h-129z" />
    <glyph glyph-name="Ocircumflex" unicode="&#xd4;" horiz-adv-x="653" 
d="M617 354q0 -113 -34 -196.5t-99.5 -128t-156.5 -44.5q-92 0 -157.5 44.5t-99.5 128t-34 196.5q0 114 34 197t99.5 128t157.5 45q91 0 156.5 -45t99.5 -128.5t34 -196.5zM190 354q0 -124 36 -189t101 -65t100.5 65t35.5 189q0 125 -35.5 190t-100.5 65t-101 -65t-36 -190z
M392 771l-65 91l-65 -91h-107l94 153h156l94 -153h-107z" />
    <glyph glyph-name="Otilde" unicode="&#xd5;" horiz-adv-x="653" 
d="M617 354q0 -113 -34 -196.5t-99.5 -128t-156.5 -44.5q-92 0 -157.5 44.5t-99.5 128t-34 196.5q0 114 34 197t99.5 128t157.5 45q91 0 156.5 -45t99.5 -128.5t34 -196.5zM190 354q0 -124 36 -189t101 -65t100.5 65t35.5 189q0 125 -35.5 190t-100.5 65t-101 -65t-36 -190z
M342 878q18 -9 30.5 -13.5t24.5 -4.5q18 0 26 10.5t9 29.5h77q-5 -64 -31.5 -96.5t-71.5 -32.5q-22 0 -42 6t-46 17q-16 7 -32.5 12.5t-29.5 5.5q-16 0 -25 -11t-10 -27h-77q5 59 33 94t74 35q23 0 41.5 -6t49.5 -19z" />
    <glyph glyph-name="Odieresis" unicode="&#xd6;" horiz-adv-x="653" 
d="M617 354q0 -113 -34 -196.5t-99.5 -128t-156.5 -44.5q-92 0 -157.5 44.5t-99.5 128t-34 196.5q0 114 34 197t99.5 128t157.5 45q91 0 156.5 -45t99.5 -128.5t34 -196.5zM190 354q0 -124 36 -189t101 -65t100.5 65t35.5 189q0 125 -35.5 190t-100.5 65t-101 -65t-36 -190z
M160 763v121h129v-121h-129zM365 763v121h129v-121h-129z" />
    <glyph glyph-name="Omacron" unicode="&#x14c;" horiz-adv-x="653" 
d="M617 354q0 -113 -34 -196.5t-99.5 -128t-156.5 -44.5q-92 0 -157.5 44.5t-99.5 128t-34 196.5q0 114 34 197t99.5 128t157.5 45q91 0 156.5 -45t99.5 -128.5t34 -196.5zM190 354q0 -124 36 -189t101 -65t100.5 65t35.5 189q0 125 -35.5 190t-100.5 65t-101 -65t-36 -190z
M171 787v97h311v-97h-311z" />
    <glyph glyph-name="Ohungarumlaut" unicode="&#x150;" horiz-adv-x="653" 
d="M617 354q0 -113 -34 -196.5t-99.5 -128t-156.5 -44.5q-92 0 -157.5 44.5t-99.5 128t-34 196.5q0 114 34 197t99.5 128t157.5 45q91 0 156.5 -45t99.5 -128.5t34 -196.5zM190 354q0 -124 36 -189t101 -65t100.5 65t35.5 189q0 125 -35.5 190t-100.5 65t-101 -65t-36 -190z
M177 771l65 153h128l-89 -153h-104zM371 771l65 153h128l-89 -153h-104z" />
    <glyph glyph-name="Oslash" unicode="&#xd8;" horiz-adv-x="653" 
d="M617 354q0 -113 -34 -196.5t-99.5 -128t-156.5 -44.5q-80 0 -140 34l-32 -55l-81 46l41 71q-79 97 -79 273q0 114 34 197t99.5 128t157.5 45q79 0 139 -34l32 55l81 -46l-41 -71q39 -48 59 -118t20 -156zM202 232l200 347q-31 30 -75 30q-65 0 -101 -65t-36 -190
q0 -71 12 -122zM463 354q0 72 -12 123l-200 -346q31 -31 76 -31q65 0 100.5 65t35.5 189z" />
    <glyph glyph-name="OE" unicode="&#x152;" horiz-adv-x="964" 
d="M617 427h164v-105h-164v-220h177l10 137h113v-239h-444v48q-63 -63 -161 -63q-85 0 -147 45t-95.5 128t-33.5 196t33.5 196.5t95.5 128.5t147 45q98 0 161 -63v48h444v-224h-113l-10 122h-177v-180zM463 354q0 125 -35.5 190t-100.5 65t-101 -65t-36 -190q0 -124 36 -189
t101 -65t100.5 65t35.5 189z" />
    <glyph glyph-name="Racute" unicode="&#x154;" horiz-adv-x="620" 
d="M599 0h-150l-207 355v-253h62v-102h-268v102h62v505h-62v102h308q103 0 167 -50.5t64 -149.5q0 -80 -45 -130.5t-115 -66.5l131 -210h53v-102zM242 395h76q53 0 83 27.5t30 78.5t-30 78.5t-83 27.5h-76v-212zM236 771l103 153h159l-133 -153h-129z" />
    <glyph glyph-name="Rcaron" unicode="&#x158;" horiz-adv-x="620" 
d="M599 0h-150l-207 355v-253h62v-102h-268v102h62v505h-62v102h308q103 0 167 -50.5t64 -149.5q0 -80 -45 -130.5t-115 -66.5l131 -210h53v-102zM242 395h76q53 0 83 27.5t30 78.5t-30 78.5t-83 27.5h-76v-212zM237 771l-94 153h107l65 -91l65 91h107l-94 -153h-156z" />
    <glyph glyph-name="Rcommaaccent" unicode="&#x156;" horiz-adv-x="620" 
d="M599 0h-150l-207 355v-253h62v-102h-268v102h62v505h-62v102h308q103 0 167 -50.5t64 -149.5q0 -80 -45 -130.5t-115 -66.5l131 -210h53v-102zM242 395h76q53 0 83 27.5t30 78.5t-30 78.5t-83 27.5h-76v-212zM340 -259h-70l60 89h-64v116h133v-116z" />
    <glyph glyph-name="Sacute" unicode="&#x15a;" horiz-adv-x="551" 
d="M513 515l-113 -15q-26 112 -127 112q-45 0 -68.5 -21.5t-23.5 -53.5q0 -28 20 -48t73 -40l59 -22q99 -37 146 -87t47 -134q0 -108 -66.5 -164.5t-177.5 -56.5q-113 0 -185.5 55.5t-76.5 188.5l116 14q11 -68 46 -105.5t102 -37.5q50 0 75.5 23.5t25.5 63.5
q0 37 -25.5 61.5t-93.5 50.5l-66 25q-78 29 -118.5 74t-40.5 119q0 58 26.5 105t79.5 74.5t130 27.5q102 0 167.5 -50.5t68.5 -158.5zM202 771l103 153h159l-133 -153h-129z" />
    <glyph glyph-name="Scaron" unicode="&#x160;" horiz-adv-x="551" 
d="M513 515l-113 -15q-26 112 -127 112q-45 0 -68.5 -21.5t-23.5 -53.5q0 -28 20 -48t73 -40l59 -22q99 -37 146 -87t47 -134q0 -108 -66.5 -164.5t-177.5 -56.5q-113 0 -185.5 55.5t-76.5 188.5l116 14q11 -68 46 -105.5t102 -37.5q50 0 75.5 23.5t25.5 63.5
q0 37 -25.5 61.5t-93.5 50.5l-66 25q-78 29 -118.5 74t-40.5 119q0 58 26.5 105t79.5 74.5t130 27.5q102 0 167.5 -50.5t68.5 -158.5zM203 771l-94 153h107l65 -91l65 91h107l-94 -153h-156z" />
    <glyph glyph-name="Scedilla" unicode="&#x15e;" horiz-adv-x="551" 
d="M310 -14l-19 -31q54 -10 83.5 -36t29.5 -68q0 -51 -35 -78t-89 -27q-47 0 -81 13.5t-55 31.5l28 53q20 -13 46 -21t50 -8q48 0 48 36q0 28 -35 40t-87 16v6l41 75q-95 10 -154 67t-61 174l116 14q11 -68 46 -105.5t102 -37.5q50 0 75.5 23.5t25.5 63.5q0 37 -25.5 61.5
t-93.5 50.5l-66 25q-78 29 -118.5 73.5t-40.5 119.5q0 58 26.5 105t79.5 74.5t130 27.5q99 0 166 -48.5t70 -160.5l-113 -15q-26 112 -127 112q-45 0 -68.5 -21.5t-23.5 -53.5q0 -28 20 -48t73 -40l59 -22q98 -37 145.5 -87t47.5 -134q0 -101 -58 -157t-158 -63z" />
    <glyph glyph-name="Scommaaccent" unicode="&#x218;" horiz-adv-x="551" 
d="M513 515l-113 -15q-26 112 -127 112q-45 0 -68.5 -21.5t-23.5 -53.5q0 -28 20 -48t73 -40l59 -22q99 -37 146 -87t47 -134q0 -108 -66.5 -164.5t-177.5 -56.5q-113 0 -185.5 55.5t-76.5 188.5l116 14q11 -68 46 -105.5t102 -37.5q50 0 75.5 23.5t25.5 63.5
q0 37 -25.5 61.5t-93.5 50.5l-66 25q-78 29 -118.5 74t-40.5 119q0 58 26.5 105t79.5 74.5t130 27.5q102 0 167.5 -50.5t68.5 -158.5zM276 -259h-70l60 89h-64v116h133v-116z" />
    <glyph glyph-name="Tcaron" unicode="&#x164;" horiz-adv-x="630" 
d="M484 475l-10 132h-87v-505h68v-102h-280v102h68v505h-87l-10 -132h-113v234h564v-234h-113zM242 771l-94 153h107l65 -91l65 91h107l-94 -153h-156z" />
    <glyph glyph-name="uni021A" unicode="&#x21a;" horiz-adv-x="630" 
d="M484 475l-10 132h-87v-505h68v-102h-280v102h68v505h-87l-10 -132h-113v234h564v-234h-113zM312 -259h-70l60 89h-64v116h133v-116z" />
    <glyph glyph-name="Tbar" unicode="&#x166;" horiz-adv-x="630" 
d="M387 390h104v-97h-104v-191h68v-102h-280v102h68v191h-103v97h103v217h-87l-10 -132h-113v234h564v-234h-113l-10 132h-87v-217z" />
    <glyph glyph-name="Ugrave" unicode="&#xd9;" horiz-adv-x="681" 
d="M587 233q0 -122 -53.5 -185t-190.5 -63t-193 63.5t-56 184.5v374h-62v102h268v-102h-62v-366q0 -71 22 -106t83 -35t83 35t22 106v366h-62v102h263v-102h-62v-374zM286 771l-133 153h159l103 -153h-129z" />
    <glyph glyph-name="Uacute" unicode="&#xda;" horiz-adv-x="681" 
d="M587 233q0 -122 -53.5 -185t-190.5 -63t-193 63.5t-56 184.5v374h-62v102h268v-102h-62v-366q0 -71 22 -106t83 -35t83 35t22 106v366h-62v102h263v-102h-62v-374zM267 771l103 153h159l-133 -153h-129z" />
    <glyph glyph-name="Ucircumflex" unicode="&#xdb;" horiz-adv-x="681" 
d="M587 233q0 -122 -53.5 -185t-190.5 -63t-193 63.5t-56 184.5v374h-62v102h268v-102h-62v-366q0 -71 22 -106t83 -35t83 35t22 106v366h-62v102h263v-102h-62v-374zM406 771l-65 91l-65 -91h-107l94 153h156l94 -153h-107z" />
    <glyph glyph-name="Udieresis" unicode="&#xdc;" horiz-adv-x="681" 
d="M587 233q0 -122 -53.5 -185t-190.5 -63t-193 63.5t-56 184.5v374h-62v102h268v-102h-62v-366q0 -71 22 -106t83 -35t83 35t22 106v366h-62v102h263v-102h-62v-374zM174 763v121h129v-121h-129zM379 763v121h129v-121h-129z" />
    <glyph glyph-name="Umacron" unicode="&#x16a;" horiz-adv-x="681" 
d="M587 233q0 -122 -53.5 -185t-190.5 -63t-193 63.5t-56 184.5v374h-62v102h268v-102h-62v-366q0 -71 22 -106t83 -35t83 35t22 106v366h-62v102h263v-102h-62v-374zM185 787v97h311v-97h-311z" />
    <glyph glyph-name="Uring" unicode="&#x16e;" horiz-adv-x="681" 
d="M587 233q0 -122 -53.5 -185t-190.5 -63t-193 63.5t-56 184.5v374h-62v102h268v-102h-62v-366q0 -71 22 -106t83 -35t83 35t22 106v366h-62v102h263v-102h-62v-374zM452.789 828.374q0 -46.7979 -32.3984 -78.7471q-32.3994 -31.9482 -80.0967 -31.9482
q-47.6982 0 -80.0967 31.9482q-32.3994 31.9492 -32.3994 78.7471t32.3994 78.7461q32.3984 31.9492 80.0967 31.9492q47.6973 0 80.0967 -31.9492q32.3984 -31.9482 32.3984 -78.7461zM286.296 828.374q0 -23.3994 15.2988 -39.1484q15.2998 -15.75 38.6992 -15.75
q23.3984 0 38.6982 15.75q15.2988 15.749 15.2988 39.1484q0 23.3984 -15.2988 39.1484q-15.2998 15.749 -38.6982 15.749q-23.3994 0 -38.6992 -15.749q-15.2988 -15.75 -15.2988 -39.1484z" />
    <glyph glyph-name="Uhungarumlaut" unicode="&#x170;" horiz-adv-x="681" 
d="M587 233q0 -122 -53.5 -185t-190.5 -63t-193 63.5t-56 184.5v374h-62v102h268v-102h-62v-366q0 -71 22 -106t83 -35t83 35t22 106v366h-62v102h263v-102h-62v-374zM191 771l65 153h128l-89 -153h-104zM385 771l65 153h128l-89 -153h-104z" />
    <glyph glyph-name="Uogonek" unicode="&#x172;" horiz-adv-x="681" 
d="M649 607h-62v-374q0 -83 -24 -138.5t-81 -83.5q-50 -30 -72 -55t-22 -50q0 -20 14.5 -28.5t45.5 -8.5q27 0 51 8v-72q-34 -17 -87 -17q-54 0 -88 23t-34 73q0 56 50 101q-136 1 -191 64.5t-55 183.5v374h-62v102h268v-102h-62v-366q0 -71 22 -106t83 -35t83 35t22 106
v366h-62v102h263v-102z" />
    <glyph glyph-name="Wgrave" unicode="&#x1e80;" horiz-adv-x="928" 
d="M864 607l-122 -607h-165l-110 502l-111 -502h-174l-117 607h-40v102h245v-102h-62l78 -453l120 555h133l120 -555l79 453h-61v102h226v-102h-39zM418 771l-133 153h159l103 -153h-129z" />
    <glyph glyph-name="Wacute" unicode="&#x1e82;" horiz-adv-x="928" 
d="M864 607l-122 -607h-165l-110 502l-111 -502h-174l-117 607h-40v102h245v-102h-62l78 -453l120 555h133l120 -555l79 453h-61v102h226v-102h-39zM399 771l103 153h159l-133 -153h-129z" />
    <glyph glyph-name="Wcircumflex" unicode="&#x174;" horiz-adv-x="928" 
d="M864 607l-122 -607h-165l-110 502l-111 -502h-174l-117 607h-40v102h245v-102h-62l78 -453l120 555h133l120 -555l79 453h-61v102h226v-102h-39zM538 771l-65 91l-65 -91h-107l94 153h156l94 -153h-107z" />
    <glyph glyph-name="Wdieresis" unicode="&#x1e84;" horiz-adv-x="928" 
d="M864 607l-122 -607h-165l-110 502l-111 -502h-174l-117 607h-40v102h245v-102h-62l78 -453l120 555h133l120 -555l79 453h-61v102h226v-102h-39zM306 763v121h129v-121h-129zM511 763v121h129v-121h-129z" />
    <glyph glyph-name="Ygrave" unicode="&#x1ef2;" horiz-adv-x="599" 
d="M583 607h-44l-166 -315v-190h65v-102h-274v102h65v188l-165 317h-48v102h245v-102h-48l97 -199l95 199h-45v102h223v-102zM257 771l-133 153h159l103 -153h-129z" />
    <glyph glyph-name="Yacute" unicode="&#xdd;" horiz-adv-x="599" 
d="M583 607h-44l-166 -315v-190h65v-102h-274v102h65v188l-165 317h-48v102h245v-102h-48l97 -199l95 199h-45v102h223v-102zM238 771l103 153h159l-133 -153h-129z" />
    <glyph glyph-name="Ycircumflex" unicode="&#x176;" horiz-adv-x="599" 
d="M583 607h-44l-166 -315v-190h65v-102h-274v102h65v188l-165 317h-48v102h245v-102h-48l97 -199l95 199h-45v102h223v-102zM377 771l-65 91l-65 -91h-107l94 153h156l94 -153h-107z" />
    <glyph glyph-name="Ydieresis" unicode="&#x178;" horiz-adv-x="599" 
d="M583 607h-44l-166 -315v-190h65v-102h-274v102h65v188l-165 317h-48v102h245v-102h-48l97 -199l95 199h-45v102h223v-102zM145 763v121h129v-121h-129zM350 763v121h129v-121h-129z" />
    <glyph glyph-name="Zacute" unicode="&#x179;" horiz-adv-x="573" 
d="M418 102l10 122h113v-224h-511v102l350 505h-204l-10 -122h-113v224h488v-102l-349 -505h226zM222 771l103 153h159l-133 -153h-129z" />
    <glyph glyph-name="Zcaron" unicode="&#x17d;" horiz-adv-x="573" 
d="M418 102l10 122h113v-224h-511v102l350 505h-204l-10 -122h-113v224h488v-102l-349 -505h226zM223 771l-94 153h107l65 -91l65 91h107l-94 -153h-156z" />
    <glyph glyph-name="Zdotaccent" unicode="&#x17b;" horiz-adv-x="573" 
d="M418 102l10 122h113v-224h-511v102l350 505h-204l-10 -122h-113v224h488v-102l-349 -505h226zM223 763v121h149v-121h-149z" />
    <glyph glyph-name="Eng" unicode="&#x14a;" horiz-adv-x="714" 
d="M682 607h-62v-620q0 -105 -54 -150.5t-140 -45.5q-70 0 -114 20v101q37 -12 82 -12q95 0 95 85v19l-267 540v-442h62v-102h-248v102h62v505h-62v102h232l228 -461v359h-62v102h248v-102z" />
    <glyph glyph-name="Eth" unicode="&#xd0;" horiz-adv-x="654" 
d="M618 355q0 -108 -33.5 -188t-97.5 -123.5t-153 -43.5h-298v102h62v212h-62v102h62v191h-62v102h298q89 0 153 -43t97.5 -123t33.5 -188zM464 355q0 133 -40 192.5t-110 59.5h-72v-191h134v-102h-134v-212h72q70 0 110 60t40 193z" />
    <glyph glyph-name="Thorn" unicode="&#xde;" horiz-adv-x="581" 
d="M565 362q0 -95 -63 -147t-171 -52h-89v-61h70v-102h-276v102h62v505h-62v102h268v-102h-62v-51h89q108 0 171 -50t63 -144zM421 360q0 46 -29 70t-84 24h-66v-189h66q55 0 84 24.5t29 70.5z" />
    <glyph glyph-name="a" unicode="a" horiz-adv-x="525" 
d="M510 0h-61q-55 0 -76.5 14t-30.5 52q-23 -36 -63 -56.5t-93 -20.5q-72 0 -116 38t-44 107q0 65 38 104.5t115 63.5l83 26q39 12 54 26.5t15 39.5q0 28 -18.5 44t-52.5 16q-81 0 -104 -95l-106 16q3 83 56.5 130.5t154.5 47.5q202 0 202 -175v-242q0 -23 6.5 -30.5
t25.5 -7.5h15v-98zM331 143v122l-70 -27q-55 -21 -76.5 -41.5t-21.5 -48.5q0 -25 16.5 -39t48.5 -14q27 0 55 12.5t48 35.5z" />
    <glyph glyph-name="b" unicode="b" horiz-adv-x="575" 
d="M549 269q0 -129 -52 -206.5t-145 -77.5q-47 0 -86 21t-63 59v-65h-177v98h52v542h-52v98h189v-258q51 73 137 73q93 0 145 -77.5t52 -206.5zM406 269q0 87 -26.5 131t-77.5 44q-49 0 -87 -38v-272q38 -40 87 -40q51 0 77.5 44t26.5 131z" />
    <glyph glyph-name="c" unicode="c" horiz-adv-x="503" 
d="M481 370l-105 -15q-13 45 -37.5 68t-64.5 23q-52 0 -78.5 -45.5t-26.5 -131.5q0 -174 105 -174q46 0 69.5 30t31.5 92l111 -14q-3 -101 -56 -159.5t-163 -58.5q-131 0 -186 81t-55 203q0 75 24 139t79 104.5t142 40.5q98 0 151.5 -49.5t58.5 -133.5z" />
    <glyph glyph-name="d" unicode="d" horiz-adv-x="577" 
d="M552 0h-182v65q-24 -38 -62 -59t-85 -21q-93 0 -145 77.5t-52 206.5t52 206.5t145 77.5q87 0 137 -71v158h-55v98h192v-640h55v-98zM360 134v272q-38 38 -87 38q-51 0 -77.5 -44t-26.5 -131t26.5 -131t77.5 -44q49 0 87 40z" />
    <glyph glyph-name="e" unicode="e" horiz-adv-x="519" 
d="M488 244h-323q4 -75 32.5 -115.5t80.5 -40.5q40 0 62.5 21.5t34.5 65.5l104 -17q-8 -84 -60 -128.5t-143 -44.5q-127 0 -188.5 77.5t-61.5 203.5q0 132 61.5 209.5t182.5 77.5q112 0 166.5 -69.5t54.5 -176.5q0 -36 -3 -63zM167 330h191q-3 62 -25 92t-67 30
q-84 0 -99 -122z" />
    <glyph glyph-name="f" unicode="f" horiz-adv-x="327" 
d="M224 586v-48h85v-95h-85v-345h65v-98h-257v98h55v345h-67v95h67v62q0 72 40 111t115 39q52 0 80 -12v-95q-18 5 -39 5q-29 0 -44 -14.5t-15 -47.5z" />
    <glyph glyph-name="g" unicode="g" horiz-adv-x="519" 
d="M476 490q-32 0 -51 -8q41 -50 41 -122q0 -58 -27 -102t-75 -67.5t-109 -23.5q-45 0 -81 12q-29 -16 -29 -33q0 -12 11 -19t43 -11l116 -15q94 -12 140.5 -50t46.5 -106q0 -81 -64.5 -120.5t-179.5 -39.5q-137 0 -191.5 35t-54.5 93q0 68 84 104q-68 27 -68 91q0 32 21 59
t62 46q-32 26 -49.5 63.5t-17.5 83.5q0 58 27 102t75 67.5t109 23.5q63 0 111 -25q37 85 116 85q13 0 27 -2v-123q-12 2 -33 2zM337 360q0 47 -22 74t-60 27t-60 -27t-22 -74t22 -74t60 -27t60 27t22 74zM130 -62q0 -64 125 -64q115 0 115 57q0 24 -20 36.5t-75 19.5
l-107 13q-38 -24 -38 -62z" />
    <glyph glyph-name="h" unicode="h" horiz-adv-x="582" 
d="M567 0h-241v98h52v252q0 40 -24 61.5t-58 21.5q-47 0 -81 -36v-299h52v-98h-241v98h52v542h-52v98h189v-260q52 74 141 74q66 0 112.5 -40.5t46.5 -121.5v-292h52v-98z" />
    <glyph glyph-name="i" unicode="i" horiz-adv-x="301" 
d="M34 0v98h52v342h-52v98h189v-440h52v-98h-241zM74 617v121h149v-121h-149z" />
    <glyph glyph-name="j" unicode="j" horiz-adv-x="285" 
d="M66 617v121h149v-121h-149zM62 -212q-51 0 -82 12v94q17 -4 40 -4q29 0 43.5 14t14.5 45v491h-52v98h189v-600q0 -72 -39.5 -111t-113.5 -39z" />
    <glyph glyph-name="k" unicode="k" horiz-adv-x="556" 
d="M546 0h-147l-184 270v-172h52v-98h-241v98h52v542h-52v98h189v-436l140 138h-45v98h220v-98h-43l-145 -136l144 -206h60v-98z" />
    <glyph glyph-name="l" unicode="l" horiz-adv-x="291" 
d="M26 0v98h52v542h-52v98h189v-640h52v-98h-241z" />
    <glyph glyph-name="m" unicode="m" horiz-adv-x="852" 
d="M837 0h-236v98h47v253q0 41 -20.5 62t-52.5 21q-42 0 -73 -33v-303h47v-98h-231v98h47v253q0 41 -21 62t-52 21q-42 0 -73 -33v-303h47v-98h-236v98h52v342h-52v98h177v-74q52 88 147 88q44 0 80.5 -22t54.5 -66q55 88 148 88q62 0 105 -40.5t43 -120.5v-293h52v-98z" />
    <glyph glyph-name="n" unicode="n" horiz-adv-x="586" 
d="M571 0h-241v98h52v252q0 40 -24 61.5t-58 21.5q-47 0 -81 -36v-299h52v-98h-241v98h52v342h-52v98h177v-79q24 42 60.5 67.5t92.5 25.5q66 0 112.5 -40.5t46.5 -121.5v-292h52v-98z" />
    <glyph glyph-name="o" unicode="o" horiz-adv-x="540" 
d="M514 269q0 -130 -64.5 -207t-179.5 -77t-179.5 77t-64.5 207t64.5 207t179.5 77t179.5 -77t64.5 -207zM169 269q0 -90 26.5 -133t74.5 -43q101 0 101 176t-101 176q-48 0 -74.5 -43t-26.5 -133z" />
    <glyph glyph-name="p" unicode="p" horiz-adv-x="570" 
d="M544 269q0 -129 -52 -206.5t-145 -77.5q-80 0 -130 61v-148h55v-98h-247v98h55v542h-55v98h180v-61q23 36 60 56t82 20q93 0 145 -77.5t52 -206.5zM401 269q0 87 -26.5 131t-77.5 44q-46 0 -80 -31v-288q34 -31 80 -31q51 0 77.5 44t26.5 131z" />
    <glyph glyph-name="q" unicode="q" horiz-adv-x="560" 
d="M490 -102h55v-98h-247v98h55v150q-49 -63 -130 -63q-93 0 -145 77.5t-52 206.5t52 206.5t145 77.5q45 0 82 -20t60 -56v61h180v-98h-55v-542zM353 125v288q-34 31 -80 31q-51 0 -77.5 -44t-26.5 -131t26.5 -131t77.5 -44q46 0 80 31z" />
    <glyph glyph-name="r" unicode="r" horiz-adv-x="387" 
d="M374 538v-140q-17 3 -38 3q-84 0 -117 -62v-241h62v-98h-251v98h52v342h-52v98h177v-118q44 123 131 123q21 0 36 -5z" />
    <glyph glyph-name="s" unicode="s" horiz-adv-x="467" 
d="M432 395l-102 -16q-20 78 -98 78q-34 0 -52.5 -15.5t-18.5 -38.5q0 -19 14.5 -31t54.5 -24l53 -16q57 -17 91 -36.5t52 -50t18 -79.5q0 -92 -56 -137t-150 -45q-97 0 -155 44t-62 142l106 17q8 -51 36.5 -77.5t73.5 -26.5q38 0 58 16t20 45q0 26 -18.5 39.5t-71.5 29.5
l-56 17q-69 21 -102 55.5t-33 97.5q0 76 52 123t149 47q83 0 137 -38.5t60 -119.5z" />
    <glyph glyph-name="t" unicode="t" horiz-adv-x="397" 
d="M230 -12q-153 0 -153 159v296h-67v95h67v136h137v-136h144v-95h-144v-287q0 -33 10 -46.5t30 -13.5q24 0 36 20.5t17 66.5l81 -12q-3 -94 -42 -138.5t-116 -44.5z" />
    <glyph glyph-name="u" unicode="u" horiz-adv-x="574" 
d="M558 0h-177v69q-55 -81 -147 -81q-67 0 -112 39t-45 120v293h-52v98h189v-354q0 -40 20.5 -59.5t52.5 -19.5q46 0 82 36v299h-52v98h189v-440h52v-98z" />
    <glyph glyph-name="v" unicode="v" horiz-adv-x="554" 
d="M499 440l-135 -440h-174l-134 440h-41v98h229v-98h-51l90 -349l90 349h-44v98h210v-98h-40z" />
    <glyph glyph-name="w" unicode="w" horiz-adv-x="819" 
d="M758 440l-99 -440h-173l-77 366l-78 -366h-172l-100 440h-39v98h223v-98h-52l64 -341l92 439h134l92 -440l65 342h-46v98h207v-98h-41z" />
    <glyph glyph-name="x" unicode="x" horiz-adv-x="562" 
d="M542 0h-235v98h48l-79 113l-82 -113h49v-98h-223v98h41l141 178l-129 164h-43v98h230v-98h-46l75 -103l73 103h-45v98h219v-98h-44l-130 -166l137 -176h43v-98z" />
    <glyph glyph-name="y" unicode="y" horiz-adv-x="556" 
d="M498 440l-187 -533q-24 -69 -63.5 -94t-97.5 -25q-23 0 -43.5 4t-30.5 8v96q23 -4 51 -4q31 0 49.5 13.5t30.5 47.5l14 39l-163 448h-43v98h232v-98h-50l87 -289l90 289h-45v98h212v-98h-43z" />
    <glyph glyph-name="z" unicode="z" horiz-adv-x="500" 
d="M356 98l9 92h100v-190h-430v103l276 337h-154l-9 -87h-100v185h417v-103l-274 -337h165z" />
    <glyph glyph-name="agrave" unicode="&#xe0;" horiz-adv-x="525" 
d="M510 0h-61q-55 0 -76.5 14t-30.5 52q-23 -36 -63 -56.5t-93 -20.5q-72 0 -116 38t-44 107q0 65 38 104.5t115 63.5l83 26q39 12 54 26.5t15 39.5q0 28 -18.5 44t-52.5 16q-81 0 -104 -95l-106 16q3 83 56.5 130.5t154.5 47.5q202 0 202 -175v-242q0 -23 6.5 -30.5
t25.5 -7.5h15v-98zM331 143v122l-70 -27q-55 -21 -76.5 -41.5t-21.5 -48.5q0 -25 16.5 -39t48.5 -14q27 0 55 12.5t48 35.5zM213 625l-133 153h159l103 -153h-129z" />
    <glyph glyph-name="aacute" unicode="&#xe1;" horiz-adv-x="525" 
d="M510 0h-61q-55 0 -76.5 14t-30.5 52q-23 -36 -63 -56.5t-93 -20.5q-72 0 -116 38t-44 107q0 65 38 104.5t115 63.5l83 26q39 12 54 26.5t15 39.5q0 28 -18.5 44t-52.5 16q-81 0 -104 -95l-106 16q3 83 56.5 130.5t154.5 47.5q202 0 202 -175v-242q0 -23 6.5 -30.5
t25.5 -7.5h15v-98zM331 143v122l-70 -27q-55 -21 -76.5 -41.5t-21.5 -48.5q0 -25 16.5 -39t48.5 -14q27 0 55 12.5t48 35.5zM194 625l103 153h159l-133 -153h-129z" />
    <glyph glyph-name="acircumflex" unicode="&#xe2;" horiz-adv-x="525" 
d="M510 0h-61q-55 0 -76.5 14t-30.5 52q-23 -36 -63 -56.5t-93 -20.5q-72 0 -116 38t-44 107q0 65 38 104.5t115 63.5l83 26q39 12 54 26.5t15 39.5q0 28 -18.5 44t-52.5 16q-81 0 -104 -95l-106 16q3 83 56.5 130.5t154.5 47.5q202 0 202 -175v-242q0 -23 6.5 -30.5
t25.5 -7.5h15v-98zM331 143v122l-70 -27q-55 -21 -76.5 -41.5t-21.5 -48.5q0 -25 16.5 -39t48.5 -14q27 0 55 12.5t48 35.5zM333 625l-65 91l-65 -91h-107l94 153h156l94 -153h-107z" />
    <glyph glyph-name="atilde" unicode="&#xe3;" horiz-adv-x="525" 
d="M510 0h-61q-55 0 -76.5 14t-30.5 52q-23 -36 -63 -56.5t-93 -20.5q-72 0 -116 38t-44 107q0 65 38 104.5t115 63.5l83 26q39 12 54 26.5t15 39.5q0 28 -18.5 44t-52.5 16q-81 0 -104 -95l-106 16q3 83 56.5 130.5t154.5 47.5q202 0 202 -175v-242q0 -23 6.5 -30.5
t25.5 -7.5h15v-98zM331 143v122l-70 -27q-55 -21 -76.5 -41.5t-21.5 -48.5q0 -25 16.5 -39t48.5 -14q27 0 55 12.5t48 35.5zM283 732q18 -9 30.5 -13.5t24.5 -4.5q18 0 26 10.5t9 29.5h77q-5 -64 -31.5 -96.5t-71.5 -32.5q-22 0 -42 6t-46 17q-16 7 -32.5 12.5t-29.5 5.5
q-16 0 -25 -11t-10 -27h-77q5 59 33 94t74 35q23 0 41.5 -6t49.5 -19z" />
    <glyph glyph-name="adieresis" unicode="&#xe4;" horiz-adv-x="525" 
d="M510 0h-61q-55 0 -76.5 14t-30.5 52q-23 -36 -63 -56.5t-93 -20.5q-72 0 -116 38t-44 107q0 65 38 104.5t115 63.5l83 26q39 12 54 26.5t15 39.5q0 28 -18.5 44t-52.5 16q-81 0 -104 -95l-106 16q3 83 56.5 130.5t154.5 47.5q202 0 202 -175v-242q0 -23 6.5 -30.5
t25.5 -7.5h15v-98zM331 143v122l-70 -27q-55 -21 -76.5 -41.5t-21.5 -48.5q0 -25 16.5 -39t48.5 -14q27 0 55 12.5t48 35.5zM101 617v121h129v-121h-129zM306 617v121h129v-121h-129z" />
    <glyph glyph-name="amacron" unicode="&#x101;" horiz-adv-x="525" 
d="M510 0h-61q-55 0 -76.5 14t-30.5 52q-23 -36 -63 -56.5t-93 -20.5q-72 0 -116 38t-44 107q0 65 38 104.5t115 63.5l83 26q39 12 54 26.5t15 39.5q0 28 -18.5 44t-52.5 16q-81 0 -104 -95l-106 16q3 83 56.5 130.5t154.5 47.5q202 0 202 -175v-242q0 -23 6.5 -30.5
t25.5 -7.5h15v-98zM331 143v122l-70 -27q-55 -21 -76.5 -41.5t-21.5 -48.5q0 -25 16.5 -39t48.5 -14q27 0 55 12.5t48 35.5zM112 641v97h311v-97h-311z" />
    <glyph glyph-name="abreve" unicode="&#x103;" horiz-adv-x="525" 
d="M510 0h-61q-55 0 -76.5 14t-30.5 52q-23 -36 -63 -56.5t-93 -20.5q-72 0 -116 38t-44 107q0 65 38 104.5t115 63.5l83 26q39 12 54 26.5t15 39.5q0 28 -18.5 44t-52.5 16q-81 0 -104 -95l-106 16q3 83 56.5 130.5t154.5 47.5q202 0 202 -175v-242q0 -23 6.5 -30.5
t25.5 -7.5h15v-98zM331 143v122l-70 -27q-55 -21 -76.5 -41.5t-21.5 -48.5q0 -25 16.5 -39t48.5 -14q27 0 55 12.5t48 35.5zM268 613q-78 0 -122.5 39.5t-44.5 108.5h97q0 -33 18 -52t52 -19t52 19t18 52h97q0 -69 -45 -108.5t-122 -39.5z" />
    <glyph glyph-name="aring" unicode="&#xe5;" horiz-adv-x="525" 
d="M510 0h-61q-55 0 -76.5 14t-30.5 52q-23 -36 -63 -56.5t-93 -20.5q-72 0 -116 38t-44 107q0 65 38 104.5t115 63.5l83 26q39 12 54 26.5t15 39.5q0 28 -18.5 44t-52.5 16q-81 0 -104 -95l-106 16q3 83 56.5 130.5t154.5 47.5q202 0 202 -175v-242q0 -23 6.5 -30.5
t25.5 -7.5h15v-98zM331 143v122l-70 -27q-55 -21 -76.5 -41.5t-21.5 -48.5q0 -25 16.5 -39t48.5 -14q27 0 55 12.5t48 35.5zM393 716q0 -52 -36 -87.5t-89 -35.5t-89 35.5t-36 87.5t36 87.5t89 35.5t89 -35.5t36 -87.5zM208 716q0 -26 17 -43.5t43 -17.5t43 17.5t17 43.5
t-17 43.5t-43 17.5t-43 -17.5t-17 -43.5z" />
    <glyph glyph-name="aogonek" unicode="&#x105;" horiz-adv-x="525" 
d="M399 -114q0 -20 14.5 -28.5t45.5 -8.5q27 0 51 8v-72q-34 -17 -87 -17q-54 0 -88 23t-34 73q0 82 105 139q-29 4 -43 18.5t-21 44.5q-23 -36 -63 -56.5t-93 -20.5q-72 0 -116 38t-44 107q0 65 38 104.5t115 63.5l83 26q39 12 54 26.5t15 39.5q0 28 -18.5 44t-52.5 16
q-81 0 -104 -95l-106 16q3 83 56.5 130.5t154.5 47.5q202 0 202 -175v-242q0 -23 6.5 -30.5t25.5 -7.5h15v-98q-59 -33 -85 -60.5t-26 -53.5zM331 143v122l-70 -27q-55 -21 -76.5 -41.5t-21.5 -48.5q0 -25 16.5 -39t48.5 -14q27 0 55 12.5t48 35.5z" />
    <glyph glyph-name="ae" unicode="&#xe6;" horiz-adv-x="825" 
d="M794 244h-323q4 -75 32.5 -115.5t80.5 -40.5q40 0 62.5 21t34.5 66l104 -17q-8 -84 -60 -128.5t-143 -44.5q-130 0 -193 83q-65 -79 -179 -79q-88 0 -135 38t-47 107q0 67 38 106t121 65l74 23q38 12 52.5 26.5t14.5 39.5q0 28 -18 44.5t-51 16.5q-80 0 -105 -95l-103 17
q3 84 56.5 130t157.5 46q105 0 154 -51q60 51 157 51q112 0 166.5 -69.5t54.5 -176.5q0 -36 -3 -63zM473 330h191q-3 62 -25 92t-67 30q-84 0 -99 -122zM349 145q-17 54 -17 120l-71 -27q-54 -21 -73.5 -40.5t-19.5 -48.5q0 -24 17.5 -38.5t51.5 -14.5q66 0 112 49z" />
    <glyph glyph-name="cacute" unicode="&#x107;" horiz-adv-x="503" 
d="M481 370l-105 -15q-13 45 -37.5 68t-64.5 23q-52 0 -78.5 -45.5t-26.5 -131.5q0 -174 105 -174q46 0 69.5 30t31.5 92l111 -14q-3 -101 -56 -159.5t-163 -58.5q-131 0 -186 81t-55 203q0 75 24 139t79 104.5t142 40.5q98 0 151.5 -49.5t58.5 -133.5zM197 625l103 153h159
l-133 -153h-129z" />
    <glyph glyph-name="ccaron" unicode="&#x10d;" horiz-adv-x="503" 
d="M481 370l-105 -15q-13 45 -37.5 68t-64.5 23q-52 0 -78.5 -45.5t-26.5 -131.5q0 -174 105 -174q46 0 69.5 30t31.5 92l111 -14q-3 -101 -56 -159.5t-163 -58.5q-131 0 -186 81t-55 203q0 75 24 139t79 104.5t142 40.5q98 0 151.5 -49.5t58.5 -133.5zM198 625l-94 153h107
l65 -91l65 91h107l-94 -153h-156z" />
    <glyph glyph-name="cdotaccent" unicode="&#x10b;" horiz-adv-x="503" 
d="M481 370l-105 -15q-13 45 -37.5 68t-64.5 23q-52 0 -78.5 -45.5t-26.5 -131.5q0 -174 105 -174q46 0 69.5 30t31.5 92l111 -14q-3 -101 -56 -159.5t-163 -58.5q-131 0 -186 81t-55 203q0 75 24 139t79 104.5t142 40.5q98 0 151.5 -49.5t58.5 -133.5zM198 617v121h149
v-121h-149z" />
    <glyph glyph-name="ccedilla" unicode="&#xe7;" horiz-adv-x="503" 
d="M299 -14l-20 -31q54 -10 83.5 -36t29.5 -68q0 -51 -35 -78t-89 -27q-47 0 -81 13.5t-55 31.5l28 53q20 -13 46 -21t50 -8q48 0 48 36q0 28 -35 40t-87 16v6l41 75q-107 14 -152 92.5t-45 188.5q0 75 24 139t79 104.5t142 40.5q98 0 151.5 -49.5t58.5 -133.5l-105 -15
q-13 45 -37.5 68t-64.5 23q-52 0 -78.5 -45.5t-26.5 -131.5q0 -174 105 -174q46 0 69.5 30t31.5 92l111 -14q-3 -93 -48 -150.5t-139 -66.5z" />
    <glyph glyph-name="dcaron" unicode="&#x10f;" horiz-adv-x="707" 
d="M552 0h-182v65q-24 -38 -62 -59t-85 -21q-93 0 -145 77.5t-52 206.5t52 206.5t145 77.5q87 0 137 -71v158h-55v98h192v-640h55v-98zM360 134v272q-38 38 -87 38q-51 0 -77.5 -44t-26.5 -131t26.5 -131t77.5 -44q49 0 87 40zM624 477h-65l56 129h-59v132h131v-132z" />
    <glyph glyph-name="egrave" unicode="&#xe8;" horiz-adv-x="519" 
d="M488 244h-323q4 -75 32.5 -115.5t80.5 -40.5q40 0 62.5 21.5t34.5 65.5l104 -17q-8 -84 -60 -128.5t-143 -44.5q-127 0 -188.5 77.5t-61.5 203.5q0 132 61.5 209.5t182.5 77.5q112 0 166.5 -69.5t54.5 -176.5q0 -36 -3 -63zM167 330h191q-3 62 -25 92t-67 30
q-84 0 -99 -122zM214 625l-133 153h159l103 -153h-129z" />
    <glyph glyph-name="eacute" unicode="&#xe9;" horiz-adv-x="519" 
d="M488 244h-323q4 -75 32.5 -115.5t80.5 -40.5q40 0 62.5 21.5t34.5 65.5l104 -17q-8 -84 -60 -128.5t-143 -44.5q-127 0 -188.5 77.5t-61.5 203.5q0 132 61.5 209.5t182.5 77.5q112 0 166.5 -69.5t54.5 -176.5q0 -36 -3 -63zM167 330h191q-3 62 -25 92t-67 30
q-84 0 -99 -122zM195 625l103 153h159l-133 -153h-129z" />
    <glyph glyph-name="ecircumflex" unicode="&#xea;" horiz-adv-x="519" 
d="M488 244h-323q4 -75 32.5 -115.5t80.5 -40.5q40 0 62.5 21.5t34.5 65.5l104 -17q-8 -84 -60 -128.5t-143 -44.5q-127 0 -188.5 77.5t-61.5 203.5q0 132 61.5 209.5t182.5 77.5q112 0 166.5 -69.5t54.5 -176.5q0 -36 -3 -63zM167 330h191q-3 62 -25 92t-67 30
q-84 0 -99 -122zM334 625l-65 91l-65 -91h-107l94 153h156l94 -153h-107z" />
    <glyph glyph-name="ecaron" unicode="&#x11b;" horiz-adv-x="519" 
d="M488 244h-323q4 -75 32.5 -115.5t80.5 -40.5q40 0 62.5 21.5t34.5 65.5l104 -17q-8 -84 -60 -128.5t-143 -44.5q-127 0 -188.5 77.5t-61.5 203.5q0 132 61.5 209.5t182.5 77.5q112 0 166.5 -69.5t54.5 -176.5q0 -36 -3 -63zM167 330h191q-3 62 -25 92t-67 30
q-84 0 -99 -122zM196 625l-94 153h107l65 -91l65 91h107l-94 -153h-156z" />
    <glyph glyph-name="edieresis" unicode="&#xeb;" horiz-adv-x="519" 
d="M488 244h-323q4 -75 32.5 -115.5t80.5 -40.5q40 0 62.5 21.5t34.5 65.5l104 -17q-8 -84 -60 -128.5t-143 -44.5q-127 0 -188.5 77.5t-61.5 203.5q0 132 61.5 209.5t182.5 77.5q112 0 166.5 -69.5t54.5 -176.5q0 -36 -3 -63zM167 330h191q-3 62 -25 92t-67 30
q-84 0 -99 -122zM102 617v121h129v-121h-129zM307 617v121h129v-121h-129z" />
    <glyph glyph-name="emacron" unicode="&#x113;" horiz-adv-x="519" 
d="M488 244h-323q4 -75 32.5 -115.5t80.5 -40.5q40 0 62.5 21.5t34.5 65.5l104 -17q-8 -84 -60 -128.5t-143 -44.5q-127 0 -188.5 77.5t-61.5 203.5q0 132 61.5 209.5t182.5 77.5q112 0 166.5 -69.5t54.5 -176.5q0 -36 -3 -63zM167 330h191q-3 62 -25 92t-67 30
q-84 0 -99 -122zM113 641v97h311v-97h-311z" />
    <glyph glyph-name="edotaccent" unicode="&#x117;" horiz-adv-x="519" 
d="M488 244h-323q4 -75 32.5 -115.5t80.5 -40.5q40 0 62.5 21.5t34.5 65.5l104 -17q-8 -84 -60 -128.5t-143 -44.5q-127 0 -188.5 77.5t-61.5 203.5q0 132 61.5 209.5t182.5 77.5q112 0 166.5 -69.5t54.5 -176.5q0 -36 -3 -63zM167 330h191q-3 62 -25 92t-67 30
q-84 0 -99 -122zM196 617v121h149v-121h-149z" />
    <glyph glyph-name="eogonek" unicode="&#x119;" horiz-adv-x="517" 
d="M488 244h-323q5 -75 33.5 -116t80.5 -41q39 0 61.5 21.5t34.5 66.5l104 -17q-4 -43 -20 -75t-47 -64q-46 -49 -61.5 -73t-15.5 -46q0 -20 13 -29.5t44 -9.5q29 0 53 8v-72q-34 -17 -86 -17t-86 22.5t-34 72.5q0 31 13.5 56.5t40.5 53.5h-13q-129 0 -191.5 75.5
t-62.5 205.5q0 132 62 209.5t182 77.5q107 0 164 -67.5t57 -178.5q0 -36 -3 -63zM167 330h191q-3 62 -25 92t-67 30q-84 0 -99 -122z" />
    <glyph glyph-name="gbreve" unicode="&#x11f;" horiz-adv-x="519" 
d="M476 490q-32 0 -51 -8q41 -50 41 -122q0 -58 -27 -102t-75 -67.5t-109 -23.5q-45 0 -81 12q-29 -16 -29 -33q0 -12 11 -19t43 -11l116 -15q94 -12 140.5 -50t46.5 -106q0 -81 -64.5 -120.5t-179.5 -39.5q-137 0 -191.5 35t-54.5 93q0 68 84 104q-68 27 -68 91q0 32 21 59
t62 46q-32 26 -49.5 63.5t-17.5 83.5q0 58 27 102t75 67.5t109 23.5q63 0 111 -25q37 85 116 85q13 0 27 -2v-123q-12 2 -33 2zM337 360q0 47 -22 74t-60 27t-60 -27t-22 -74t22 -74t60 -27t60 27t22 74zM130 -62q0 -64 125 -64q115 0 115 57q0 24 -20 36.5t-75 19.5
l-107 13q-38 -24 -38 -62zM259 613q-78 0 -122.5 39.5t-44.5 108.5h97q0 -33 18 -52t52 -19t52 19t18 52h97q0 -69 -45 -108.5t-122 -39.5z" />
    <glyph glyph-name="gdotaccent" unicode="&#x121;" horiz-adv-x="519" 
d="M476 490q-32 0 -51 -8q41 -50 41 -122q0 -58 -27 -102t-75 -67.5t-109 -23.5q-45 0 -81 12q-29 -16 -29 -33q0 -12 11 -19t43 -11l116 -15q94 -12 140.5 -50t46.5 -106q0 -81 -64.5 -120.5t-179.5 -39.5q-137 0 -191.5 35t-54.5 93q0 68 84 104q-68 27 -68 91q0 32 21 59
t62 46q-32 26 -49.5 63.5t-17.5 83.5q0 58 27 102t75 67.5t109 23.5q63 0 111 -25q37 85 116 85q13 0 27 -2v-123q-12 2 -33 2zM337 360q0 47 -22 74t-60 27t-60 -27t-22 -74t22 -74t60 -27t60 27t22 74zM130 -62q0 -64 125 -64q115 0 115 57q0 24 -20 36.5t-75 19.5
l-107 13q-38 -24 -38 -62zM186 617v121h149v-121h-149z" />
    <glyph glyph-name="gcommaaccent" unicode="&#x123;" horiz-adv-x="519" 
d="M476 490q-32 0 -51 -8q41 -50 41 -122q0 -58 -27 -102t-75 -67.5t-109 -23.5q-45 0 -81 12q-29 -16 -29 -33q0 -12 11 -19t43 -11l116 -15q94 -12 140.5 -50t46.5 -106q0 -81 -64.5 -120.5t-179.5 -39.5q-137 0 -191.5 35t-54.5 93q0 68 84 104q-68 27 -68 91q0 32 21 59
t62 46q-32 26 -49.5 63.5t-17.5 83.5q0 58 27 102t75 67.5t109 23.5q63 0 111 -25q37 85 116 85q13 0 27 -2v-123q-12 2 -33 2zM337 360q0 47 -22 74t-60 27t-60 -27t-22 -74t22 -74t60 -27t60 27t22 74zM130 -62q0 -64 125 -64q115 0 115 57q0 24 -20 36.5t-75 19.5
l-107 13q-38 -24 -38 -62zM192 617v119l60 91h72l-62 -91h65v-119h-135z" />
    <glyph glyph-name="hbar" unicode="&#x127;" horiz-adv-x="582" 
d="M567 0h-241v98h52v229q0 40 -24 61.5t-58 21.5q-47 0 -81 -36v-276h52v-98h-241v98h52v475h-52v91h52v74h137v-74h126v-91h-126v-118q52 74 141 74q66 0 112.5 -40.5t46.5 -121.5v-269h52v-98z" />
    <glyph glyph-name="igrave" unicode="&#xec;" horiz-adv-x="301" 
d="M34 0v98h52v342h-52v98h189v-440h52v-98h-241zM93 625l-133 153h159l103 -153h-129z" />
    <glyph glyph-name="iacute" unicode="&#xed;" horiz-adv-x="301" 
d="M34 0v98h52v342h-52v98h189v-440h52v-98h-241zM73 625l103 153h159l-133 -153h-129z" />
    <glyph glyph-name="icircumflex" unicode="&#xee;" horiz-adv-x="301" 
d="M34 0v98h52v342h-52v98h189v-440h52v-98h-241zM213 625l-65 91l-65 -91h-107l94 153h156l94 -153h-107z" />
    <glyph glyph-name="idieresis" unicode="&#xef;" horiz-adv-x="301" 
d="M34 0v98h52v342h-52v98h189v-440h52v-98h-241zM-19 617v121h129v-121h-129zM186 617v121h129v-121h-129z" />
    <glyph glyph-name="imacron" unicode="&#x12b;" horiz-adv-x="301" 
d="M34 0v98h52v342h-52v98h189v-440h52v-98h-241zM-8 641v97h311v-97h-311z" />
    <glyph glyph-name="iogonek" unicode="&#x12f;" horiz-adv-x="301" 
d="M74 617v121h149v-121h-149zM164 -114q0 -20 14.5 -28.5t45.5 -8.5q27 0 51 8v-72q-34 -17 -87 -17q-54 0 -88 23t-34 73q0 80 100 136h-132v98h52v342h-52v98h189v-440h52v-98q-59 -33 -85 -60.5t-26 -53.5z" />
    <glyph glyph-name="dotlessi" unicode="&#x131;" horiz-adv-x="301" 
d="M34 0v98h52v342h-52v98h189v-440h52v-98h-241z" />
    <glyph glyph-name="ij" unicode="&#x133;" horiz-adv-x="586" 
d="M34 0v98h52v342h-52v98h189v-440h52v-98h-241zM74 617v121h149v-121h-149zM367 617v121h149v-121h-149zM363 -212q-51 0 -82 12v94q17 -4 40 -4q29 0 43.5 14t14.5 45v491h-52v98h189v-600q0 -72 -39.5 -111t-113.5 -39z" />
    <glyph glyph-name="kcommaaccent" unicode="&#x137;" horiz-adv-x="556" 
d="M546 0h-147l-184 270v-172h52v-98h-241v98h52v542h-52v98h189v-436l140 138h-45v98h220v-98h-43l-145 -136l144 -206h60v-98zM295 -259h-70l60 89h-64v116h133v-116z" />
    <glyph glyph-name="lacute" unicode="&#x13a;" horiz-adv-x="291" 
d="M26 0v98h52v542h-52v98h189v-640h52v-98h-241zM73 785l103 153h159l-133 -153h-129z" />
    <glyph glyph-name="lcaron" unicode="&#x13e;" horiz-adv-x="426" 
d="M26 0v98h52v542h-52v98h189v-640h52v-98h-241zM343 477h-65l56 129h-59v132h131v-132z" />
    <glyph glyph-name="lcommaaccent" unicode="&#x13c;" horiz-adv-x="291" 
d="M26 0v98h52v542h-52v98h189v-640h52v-98h-241zM154 -259h-70l60 89h-64v116h133v-116z" />
    <glyph glyph-name="lslash" unicode="&#x142;" horiz-adv-x="333" 
d="M235 98h52v-98h-241v98h52v192l-72 -38v106l72 38v244h-52v98h189v-275l72 38v-106l-72 -38v-259z" />
    <glyph glyph-name="ldot" unicode="&#x140;" horiz-adv-x="479" 
d="M26 0v98h52v542h-52v98h189v-640h52v-98h-241zM312.4 269.101v143.82h147.58v-143.82h-147.58z" />
    <glyph glyph-name="nacute" unicode="&#x144;" horiz-adv-x="586" 
d="M571 0h-241v98h52v252q0 40 -24 61.5t-58 21.5q-47 0 -81 -36v-299h52v-98h-241v98h52v342h-52v98h177v-79q24 42 60.5 67.5t92.5 25.5q66 0 112.5 -40.5t46.5 -121.5v-292h52v-98zM229 625l103 153h159l-133 -153h-129z" />
    <glyph glyph-name="ncaron" unicode="&#x148;" horiz-adv-x="586" 
d="M571 0h-241v98h52v252q0 40 -24 61.5t-58 21.5q-47 0 -81 -36v-299h52v-98h-241v98h52v342h-52v98h177v-79q24 42 60.5 67.5t92.5 25.5q66 0 112.5 -40.5t46.5 -121.5v-292h52v-98zM230 625l-94 153h107l65 -91l65 91h107l-94 -153h-156z" />
    <glyph glyph-name="ntilde" unicode="&#xf1;" horiz-adv-x="586" 
d="M571 0h-241v98h52v252q0 40 -24 61.5t-58 21.5q-47 0 -81 -36v-299h52v-98h-241v98h52v342h-52v98h177v-79q24 42 60.5 67.5t92.5 25.5q66 0 112.5 -40.5t46.5 -121.5v-292h52v-98zM318 732q18 -9 30.5 -13.5t24.5 -4.5q18 0 26 10.5t9 29.5h77q-5 -64 -31.5 -96.5
t-71.5 -32.5q-22 0 -42 6t-46 17q-16 7 -32.5 12.5t-29.5 5.5q-16 0 -25 -11t-10 -27h-77q5 59 33 94t74 35q23 0 41.5 -6t49.5 -19z" />
    <glyph glyph-name="ncommaaccent" unicode="&#x146;" horiz-adv-x="586" 
d="M571 0h-241v98h52v252q0 40 -24 61.5t-58 21.5q-47 0 -81 -36v-299h52v-98h-241v98h52v342h-52v98h177v-79q24 42 60.5 67.5t92.5 25.5q66 0 112.5 -40.5t46.5 -121.5v-292h52v-98zM310 -259h-70l60 89h-64v116h133v-116z" />
    <glyph glyph-name="ograve" unicode="&#xf2;" horiz-adv-x="540" 
d="M514 269q0 -130 -64.5 -207t-179.5 -77t-179.5 77t-64.5 207t64.5 207t179.5 77t179.5 -77t64.5 -207zM169 269q0 -90 26.5 -133t74.5 -43q101 0 101 176t-101 176q-48 0 -74.5 -43t-26.5 -133zM215 625l-133 153h159l103 -153h-129z" />
    <glyph glyph-name="oacute" unicode="&#xf3;" horiz-adv-x="540" 
d="M514 269q0 -130 -64.5 -207t-179.5 -77t-179.5 77t-64.5 207t64.5 207t179.5 77t179.5 -77t64.5 -207zM169 269q0 -90 26.5 -133t74.5 -43q101 0 101 176t-101 176q-48 0 -74.5 -43t-26.5 -133zM196 625l103 153h159l-133 -153h-129z" />
    <glyph glyph-name="ocircumflex" unicode="&#xf4;" horiz-adv-x="540" 
d="M514 269q0 -130 -64.5 -207t-179.5 -77t-179.5 77t-64.5 207t64.5 207t179.5 77t179.5 -77t64.5 -207zM169 269q0 -90 26.5 -133t74.5 -43q101 0 101 176t-101 176q-48 0 -74.5 -43t-26.5 -133zM335 625l-65 91l-65 -91h-107l94 153h156l94 -153h-107z" />
    <glyph glyph-name="otilde" unicode="&#xf5;" horiz-adv-x="540" 
d="M514 269q0 -130 -64.5 -207t-179.5 -77t-179.5 77t-64.5 207t64.5 207t179.5 77t179.5 -77t64.5 -207zM169 269q0 -90 26.5 -133t74.5 -43q101 0 101 176t-101 176q-48 0 -74.5 -43t-26.5 -133zM285 732q18 -9 30.5 -13.5t24.5 -4.5q18 0 26 10.5t9 29.5h77
q-5 -64 -31.5 -96.5t-71.5 -32.5q-22 0 -42 6t-46 17q-16 7 -32.5 12.5t-29.5 5.5q-16 0 -25 -11t-10 -27h-77q5 59 33 94t74 35q23 0 41.5 -6t49.5 -19z" />
    <glyph glyph-name="odieresis" unicode="&#xf6;" horiz-adv-x="540" 
d="M514 269q0 -130 -64.5 -207t-179.5 -77t-179.5 77t-64.5 207t64.5 207t179.5 77t179.5 -77t64.5 -207zM169 269q0 -90 26.5 -133t74.5 -43q101 0 101 176t-101 176q-48 0 -74.5 -43t-26.5 -133zM103 617v121h129v-121h-129zM308 617v121h129v-121h-129z" />
    <glyph glyph-name="omacron" unicode="&#x14d;" horiz-adv-x="540" 
d="M514 269q0 -130 -64.5 -207t-179.5 -77t-179.5 77t-64.5 207t64.5 207t179.5 77t179.5 -77t64.5 -207zM169 269q0 -90 26.5 -133t74.5 -43q101 0 101 176t-101 176q-48 0 -74.5 -43t-26.5 -133zM114 641v97h311v-97h-311z" />
    <glyph glyph-name="ohungarumlaut" unicode="&#x151;" horiz-adv-x="540" 
d="M514 269q0 -130 -64.5 -207t-179.5 -77t-179.5 77t-64.5 207t64.5 207t179.5 77t179.5 -77t64.5 -207zM169 269q0 -90 26.5 -133t74.5 -43q101 0 101 176t-101 176q-48 0 -74.5 -43t-26.5 -133zM120 625l65 153h128l-89 -153h-104zM314 625l65 153h128l-89 -153h-104z
" />
    <glyph glyph-name="oslash" unicode="&#xf8;" horiz-adv-x="540" 
d="M514 269q0 -130 -64.5 -207t-179.5 -77q-58 0 -107 22l-25 -43l-64 36l28 49q-37 38 -56.5 94t-19.5 126q0 130 64.5 207t179.5 77q61 0 110 -23l25 44l64 -36l-29 -51q36 -38 55 -93.5t19 -124.5zM178 180l143 249q-20 16 -51 16q-48 0 -74.5 -43t-26.5 -133
q0 -53 9 -89zM371 269q0 48 -8 85l-142 -246q21 -15 49 -15q101 0 101 176z" />
    <glyph glyph-name="oe" unicode="&#x153;" horiz-adv-x="861" 
d="M832 244h-323q5 -75 33.5 -116t80.5 -41q39 0 61.5 22t34.5 67l104 -18q-8 -84 -60 -128.5t-143 -44.5q-119 0 -180 72q-61 -72 -170 -72q-115 0 -179.5 77t-64.5 207t64.5 207t179.5 77q108 0 171 -72q58 72 173 72q111 0 166 -70t55 -176q0 -36 -3 -63zM511 330h191
q-3 62 -25 92t-67 30q-84 0 -99 -122zM371 269q0 176 -101 176q-48 0 -74.5 -43t-26.5 -133t26.5 -133t74.5 -43q101 0 101 176z" />
    <glyph glyph-name="racute" unicode="&#x155;" horiz-adv-x="387" 
d="M374 538v-140q-17 3 -38 3q-84 0 -117 -62v-241h62v-98h-251v98h52v342h-52v98h177v-118q44 123 131 123q21 0 36 -5zM150 625l103 153h159l-133 -153h-129z" />
    <glyph glyph-name="rcaron" unicode="&#x159;" horiz-adv-x="387" 
d="M374 538v-140q-17 3 -38 3q-84 0 -117 -62v-241h62v-98h-251v98h52v342h-52v98h177v-118q44 123 131 123q21 0 36 -5zM151 625l-94 153h107l65 -91l65 91h107l-94 -153h-156z" />
    <glyph glyph-name="rcommaaccent" unicode="&#x157;" horiz-adv-x="387" 
d="M374 538v-140q-17 3 -38 3q-84 0 -117 -62v-241h62v-98h-251v98h52v342h-52v98h177v-118q44 123 131 123q21 0 36 -5zM160 -259h-70l60 89h-64v116h133v-116z" />
    <glyph glyph-name="sacute" unicode="&#x15b;" horiz-adv-x="467" 
d="M432 395l-102 -16q-20 78 -98 78q-34 0 -52.5 -15.5t-18.5 -38.5q0 -19 14.5 -31t54.5 -24l53 -16q57 -17 91 -36.5t52 -50t18 -79.5q0 -92 -56 -137t-150 -45q-97 0 -155 44t-62 142l106 17q8 -51 36.5 -77.5t73.5 -26.5q38 0 58 16t20 45q0 26 -18.5 39.5t-71.5 29.5
l-56 17q-69 21 -102 55.5t-33 97.5q0 76 52 123t149 47q83 0 137 -38.5t60 -119.5zM158 625l103 153h159l-133 -153h-129z" />
    <glyph glyph-name="scaron" unicode="&#x161;" horiz-adv-x="467" 
d="M432 395l-102 -16q-20 78 -98 78q-34 0 -52.5 -15.5t-18.5 -38.5q0 -19 14.5 -31t54.5 -24l53 -16q57 -17 91 -36.5t52 -50t18 -79.5q0 -92 -56 -137t-150 -45q-97 0 -155 44t-62 142l106 17q8 -51 36.5 -77.5t73.5 -26.5q38 0 58 16t20 45q0 26 -18.5 39.5t-71.5 29.5
l-56 17q-69 21 -102 55.5t-33 97.5q0 76 52 123t149 47q83 0 137 -38.5t60 -119.5zM159 625l-94 153h107l65 -91l65 91h107l-94 -153h-156z" />
    <glyph glyph-name="scedilla" unicode="&#x15f;" horiz-adv-x="467" 
d="M270 -15l-19 -30q54 -10 83.5 -36t29.5 -68q0 -51 -35 -78t-89 -27q-47 0 -81 13.5t-55 31.5l28 53q20 -13 46 -21t50 -8q48 0 48 36q0 28 -35 40t-87 16v6l40 73q-74 9 -122 50.5t-51 133.5l106 17q8 -50 36.5 -77t73.5 -27q38 0 58 16t20 45q0 26 -18.5 39.5
t-71.5 29.5l-56 17q-70 21 -102.5 56t-32.5 97q0 76 52.5 123t148.5 47q84 0 137.5 -38.5t59.5 -119.5l-102 -16q-20 78 -98 78q-34 0 -52.5 -15.5t-18.5 -38.5q0 -19 14.5 -31t54.5 -24l53 -16q57 -17 91 -36.5t52 -50t18 -79.5q0 -85 -47.5 -129.5t-126.5 -51.5z" />
    <glyph glyph-name="scommaaccent" unicode="&#x219;" horiz-adv-x="467" 
d="M432 395l-102 -16q-20 78 -98 78q-34 0 -52.5 -15.5t-18.5 -38.5q0 -19 14.5 -31t54.5 -24l53 -16q57 -17 91 -36.5t52 -50t18 -79.5q0 -92 -56 -137t-150 -45q-97 0 -155 44t-62 142l106 17q8 -51 36.5 -77.5t73.5 -26.5q38 0 58 16t20 45q0 26 -18.5 39.5t-71.5 29.5
l-56 17q-69 21 -102 55.5t-33 97.5q0 76 52 123t149 47q83 0 137 -38.5t60 -119.5zM236 -259h-70l60 89h-64v116h133v-116z" />
    <glyph glyph-name="germandbls" unicode="&#xdf;" horiz-adv-x="581" 
d="M555 203q0 -94 -52 -151t-140 -57q-36 0 -57 4.5t-40 11.5v97q20 -7 53 -7q42 0 69.5 29t27.5 82q0 58 -32.5 88.5t-107.5 30.5v98q109 0 109 119q0 44 -21.5 70.5t-61.5 26.5q-84 0 -84 -126v-519h-192v98h55v423q0 73 29 124t78.5 76t111.5 25q70 0 118.5 -25.5
t73 -69.5t24.5 -98q0 -119 -95 -160q63 -20 98.5 -67t35.5 -123z" />
    <glyph glyph-name="tcaron" unicode="&#x165;" horiz-adv-x="397" 
d="M230 -12q-153 0 -153 159v296h-67v95h67v136h137v-136h144v-95h-144v-287q0 -33 10 -46.5t30 -13.5q24 0 36 20.5t17 66.5l81 -12q-3 -94 -42 -138.5t-116 -44.5zM347 617h-65l56 129h-59v132h131v-132z" />
    <glyph glyph-name="uni021B" unicode="&#x21b;" horiz-adv-x="397" 
d="M230 -12q-153 0 -153 159v296h-67v95h67v136h137v-136h144v-95h-144v-287q0 -33 10 -46.5t30 -13.5q24 0 36 20.5t17 66.5l81 -12q-3 -94 -42 -138.5t-116 -44.5zM205 -259h-70l60 89h-64v116h133v-116z" />
    <glyph glyph-name="tbar" unicode="&#x167;" horiz-adv-x="395" 
d="M230 -12q-153 0 -153 159v115h-62v93h62v88h-67v95h67v136h137v-136h144v-95h-144v-88h134v-93h-134v-106q0 -33 10 -46.5t30 -13.5q24 0 36 20.5t17 66.5l81 -12q-3 -94 -42 -138.5t-116 -44.5z" />
    <glyph glyph-name="ugrave" unicode="&#xf9;" horiz-adv-x="574" 
d="M558 0h-177v69q-55 -81 -147 -81q-67 0 -112 39t-45 120v293h-52v98h189v-354q0 -40 20.5 -59.5t52.5 -19.5q46 0 82 36v299h-52v98h189v-440h52v-98zM232 625l-133 153h159l103 -153h-129z" />
    <glyph glyph-name="uacute" unicode="&#xfa;" horiz-adv-x="574" 
d="M558 0h-177v69q-55 -81 -147 -81q-67 0 -112 39t-45 120v293h-52v98h189v-354q0 -40 20.5 -59.5t52.5 -19.5q46 0 82 36v299h-52v98h189v-440h52v-98zM213 625l103 153h159l-133 -153h-129z" />
    <glyph glyph-name="ucircumflex" unicode="&#xfb;" horiz-adv-x="574" 
d="M558 0h-177v69q-55 -81 -147 -81q-67 0 -112 39t-45 120v293h-52v98h189v-354q0 -40 20.5 -59.5t52.5 -19.5q46 0 82 36v299h-52v98h189v-440h52v-98zM352 625l-65 91l-65 -91h-107l94 153h156l94 -153h-107z" />
    <glyph glyph-name="udieresis" unicode="&#xfc;" horiz-adv-x="574" 
d="M558 0h-177v69q-55 -81 -147 -81q-67 0 -112 39t-45 120v293h-52v98h189v-354q0 -40 20.5 -59.5t52.5 -19.5q46 0 82 36v299h-52v98h189v-440h52v-98zM120 617v121h129v-121h-129zM325 617v121h129v-121h-129z" />
    <glyph glyph-name="umacron" unicode="&#x16b;" horiz-adv-x="574" 
d="M558 0h-177v69q-55 -81 -147 -81q-67 0 -112 39t-45 120v293h-52v98h189v-354q0 -40 20.5 -59.5t52.5 -19.5q46 0 82 36v299h-52v98h189v-440h52v-98zM131 641v97h311v-97h-311z" />
    <glyph glyph-name="uring" unicode="&#x16f;" horiz-adv-x="574" 
d="M558 0h-177v69q-55 -81 -147 -81q-67 0 -112 39t-45 120v293h-52v98h189v-354q0 -40 20.5 -59.5t52.5 -19.5q46 0 82 36v299h-52v98h189v-440h52v-98zM412 716q0 -52 -36 -87.5t-89 -35.5t-89 35.5t-36 87.5t36 87.5t89 35.5t89 -35.5t36 -87.5zM227 716q0 -26 17 -43.5
t43 -17.5t43 17.5t17 43.5t-17 43.5t-43 17.5t-43 -17.5t-17 -43.5z" />
    <glyph glyph-name="uhungarumlaut" unicode="&#x171;" horiz-adv-x="574" 
d="M558 0h-177v69q-55 -81 -147 -81q-67 0 -112 39t-45 120v293h-52v98h189v-354q0 -40 20.5 -59.5t52.5 -19.5q46 0 82 36v299h-52v98h189v-440h52v-98zM137 625l65 153h128l-89 -153h-104zM331 625l65 153h128l-89 -153h-104z" />
    <glyph glyph-name="uogonek" unicode="&#x173;" horiz-adv-x="574" 
d="M447 -114q0 -20 14.5 -28.5t45.5 -8.5q27 0 51 8v-72q-34 -17 -87 -17q-54 0 -88 23t-34 73q0 80 100 136h-68v69q-55 -81 -147 -81q-67 0 -112 39t-45 120v293h-52v98h189v-354q0 -40 20.5 -59.5t52.5 -19.5q46 0 82 36v299h-52v98h189v-440h52v-98q-59 -33 -85 -60.5
t-26 -53.5z" />
    <glyph glyph-name="wgrave" unicode="&#x1e81;" horiz-adv-x="819" 
d="M758 440l-99 -440h-173l-77 366l-78 -366h-172l-100 440h-39v98h223v-98h-52l64 -341l92 439h134l92 -440l65 342h-46v98h207v-98h-41zM361 625l-133 153h159l103 -153h-129z" />
    <glyph glyph-name="wacute" unicode="&#x1e83;" horiz-adv-x="819" 
d="M758 440l-99 -440h-173l-77 366l-78 -366h-172l-100 440h-39v98h223v-98h-52l64 -341l92 439h134l92 -440l65 342h-46v98h207v-98h-41zM342 625l103 153h159l-133 -153h-129z" />
    <glyph glyph-name="wcircumflex" unicode="&#x175;" horiz-adv-x="819" 
d="M758 440l-99 -440h-173l-77 366l-78 -366h-172l-100 440h-39v98h223v-98h-52l64 -341l92 439h134l92 -440l65 342h-46v98h207v-98h-41zM481 625l-65 91l-65 -91h-107l94 153h156l94 -153h-107z" />
    <glyph glyph-name="wdieresis" unicode="&#x1e85;" horiz-adv-x="819" 
d="M758 440l-99 -440h-173l-77 366l-78 -366h-172l-100 440h-39v98h223v-98h-52l64 -341l92 439h134l92 -440l65 342h-46v98h207v-98h-41zM249 617v121h129v-121h-129zM454 617v121h129v-121h-129z" />
    <glyph glyph-name="ygrave" unicode="&#x1ef3;" horiz-adv-x="556" 
d="M498 440l-187 -533q-24 -69 -63.5 -94t-97.5 -25q-23 0 -43.5 4t-30.5 8v96q23 -4 51 -4q31 0 49.5 13.5t30.5 47.5l14 39l-163 448h-43v98h232v-98h-50l87 -289l90 289h-45v98h212v-98h-43zM234 625l-133 153h159l103 -153h-129z" />
    <glyph glyph-name="yacute" unicode="&#xfd;" horiz-adv-x="556" 
d="M498 440l-187 -533q-24 -69 -63.5 -94t-97.5 -25q-23 0 -43.5 4t-30.5 8v96q23 -4 51 -4q31 0 49.5 13.5t30.5 47.5l14 39l-163 448h-43v98h232v-98h-50l87 -289l90 289h-45v98h212v-98h-43zM215 625l103 153h159l-133 -153h-129z" />
    <glyph glyph-name="ycircumflex" unicode="&#x177;" horiz-adv-x="556" 
d="M498 440l-187 -533q-24 -69 -63.5 -94t-97.5 -25q-23 0 -43.5 4t-30.5 8v96q23 -4 51 -4q31 0 49.5 13.5t30.5 47.5l14 39l-163 448h-43v98h232v-98h-50l87 -289l90 289h-45v98h212v-98h-43zM354 625l-65 91l-65 -91h-107l94 153h156l94 -153h-107z" />
    <glyph glyph-name="ydieresis" unicode="&#xff;" horiz-adv-x="556" 
d="M498 440l-187 -533q-24 -69 -63.5 -94t-97.5 -25q-23 0 -43.5 4t-30.5 8v96q23 -4 51 -4q31 0 49.5 13.5t30.5 47.5l14 39l-163 448h-43v98h232v-98h-50l87 -289l90 289h-45v98h212v-98h-43zM122 617v121h129v-121h-129zM327 617v121h129v-121h-129z" />
    <glyph glyph-name="zacute" unicode="&#x17a;" horiz-adv-x="500" 
d="M356 98l9 92h100v-190h-430v103l276 337h-154l-9 -87h-100v185h417v-103l-274 -337h165zM182 625l103 153h159l-133 -153h-129z" />
    <glyph glyph-name="zcaron" unicode="&#x17e;" horiz-adv-x="500" 
d="M356 98l9 92h100v-190h-430v103l276 337h-154l-9 -87h-100v185h417v-103l-274 -337h165zM183 625l-94 153h107l65 -91l65 91h107l-94 -153h-156z" />
    <glyph glyph-name="zdotaccent" unicode="&#x17c;" horiz-adv-x="500" 
d="M356 98l9 92h100v-190h-430v103l276 337h-154l-9 -87h-100v185h417v-103l-274 -337h165zM183 617v121h149v-121h-149z" />
    <glyph glyph-name="eng" unicode="&#x14b;" horiz-adv-x="579" 
d="M519 390v-452q0 -72 -39.5 -111t-113.5 -39q-50 0 -82 12v94q17 -4 40 -4q29 0 43.5 14t14.5 45v401q0 40 -24 61.5t-58 21.5q-47 0 -81 -36v-299h52v-98h-241v98h52v342h-52v98h177v-79q25 42 61 68t92 26q66 0 112.5 -41t46.5 -122z" />
    <glyph glyph-name="eth" unicode="&#xf0;" horiz-adv-x="540" 
d="M514 288q0 -150 -63 -226.5t-181 -76.5q-116 0 -180 69t-64 190q0 81 30.5 134.5t79 78.5t103.5 25q62 0 109 -34q-19 63 -56 113l-119 -56l-38 76l97 46q-32 29 -80 64l99 63q55 -32 99 -72l103 49l38 -76l-81 -38q104 -136 104 -329zM371 269q0 39 -3 72q-32 43 -91 43
q-53 0 -80.5 -33t-27.5 -107q0 -75 26.5 -113t74.5 -38q101 0 101 176z" />
    <glyph glyph-name="thorn" unicode="&#xfe;" horiz-adv-x="571" 
d="M545 269q0 -129 -52 -206.5t-145 -77.5q-80 0 -130 61v-148h55v-98h-247v98h55v742h-55v98h192v-244q24 28 57 43.5t73 15.5q93 0 145 -77.5t52 -206.5zM402 269q0 87 -26.5 131t-77.5 44q-46 0 -80 -31v-288q34 -31 80 -31q51 0 77.5 44t26.5 131z" />
    <glyph glyph-name="ampersand" unicode="&#x26;" horiz-adv-x="682" 
d="M662 0h-145l-39 45q-84 -60 -205 -60q-113 0 -176.5 54t-63.5 150q0 71 38 118t113 80q-39 48 -55.5 84.5t-16.5 81.5q0 46 21 85t65.5 63t110.5 24q97 0 149 -49t52 -124q0 -68 -35 -112t-107 -78l109 -127q20 62 25 144l118 -15q0 -62 -14.5 -120t-44.5 -107l31 -35h70
v-102zM244 556q0 -27 13 -52.5t49 -69.5q46 21 64 50t18 65q0 35 -20.5 55.5t-54.5 20.5q-32 0 -50.5 -19.5t-18.5 -49.5zM407 127l-162 188q-37 -20 -55.5 -49.5t-18.5 -65.5q0 -48 31 -78.5t91 -30.5q69 0 114 36z" />
    <glyph glyph-name="grave" unicode="`" horiz-adv-x="362" 
d="M183 625l-133 153h159l103 -153h-129z" />
    <glyph glyph-name="acute" unicode="&#xb4;" horiz-adv-x="362" 
d="M50 625l103 153h159l-133 -153h-129z" />
    <glyph glyph-name="circumflex" unicode="&#x2c6;" horiz-adv-x="452" 
d="M291 625l-65 91l-65 -91h-107l94 153h156l94 -153h-107z" />
    <glyph glyph-name="caron" unicode="&#x2c7;" horiz-adv-x="452" 
d="M148 625l-94 153h107l65 -91l65 91h107l-94 -153h-156z" />
    <glyph glyph-name="caron.alt" horiz-adv-x="261" 
d="M142 477h-65l56 129h-59v132h131v-132z" />
    <glyph glyph-name="tilde" unicode="&#x2dc;" horiz-adv-x="455" 
d="M243 732q18 -9 30.5 -13.5t24.5 -4.5q18 0 26 10.5t9 29.5h77q-5 -64 -31.5 -96.5t-71.5 -32.5q-22 0 -42 6t-46 17q-16 7 -32.5 12.5t-29.5 5.5q-16 0 -25 -11t-10 -27h-77q5 59 33 94t74 35q23 0 41.5 -6t49.5 -19z" />
    <glyph glyph-name="dieresis" unicode="&#xa8;" horiz-adv-x="434" 
d="M50 617v121h129v-121h-129zM255 617v121h129v-121h-129z" />
    <glyph glyph-name="breve" unicode="&#x2d8;" horiz-adv-x="444" 
d="M222 613q-78 0 -122.5 39.5t-44.5 108.5h97q0 -33 18 -52t52 -19t52 19t18 52h97q0 -69 -45 -108.5t-122 -39.5z" />
    <glyph glyph-name="ring" unicode="&#x2da;" horiz-adv-x="354" 
d="M302 716q0 -52 -36 -87.5t-89 -35.5t-89 35.5t-36 87.5t36 87.5t89 35.5t89 -35.5t36 -87.5zM117 716q0 -26 17 -43.5t43 -17.5t43 17.5t17 43.5t-17 43.5t-43 17.5t-43 -17.5t-17 -43.5z" />
    <glyph glyph-name="hungarumlaut" unicode="&#x2dd;" horiz-adv-x="487" 
d="M50 625l65 153h128l-89 -153h-104zM244 625l65 153h128l-89 -153h-104z" />
    <glyph glyph-name="dotaccent" unicode="&#x2d9;" horiz-adv-x="265" 
d="M54 617v121h149v-121h-149z" />
    <glyph glyph-name="cedilla" unicode="&#xb8;" horiz-adv-x="366" 
d="M313 -149q0 -51 -35 -78t-89 -27q-47 0 -81 13.5t-55 31.5l28 53q20 -13 46 -21t50 -8q48 0 48 36q0 28 -35 40t-87 16v6l54 99l71 -12l-28 -45q54 -10 83.5 -36t29.5 -68z" />
    <glyph glyph-name="ogonek" unicode="&#x2db;" horiz-adv-x="301" 
d="M140 -114q0 -20 14.5 -28.5t45.5 -8.5q27 0 51 8v-72q-34 -17 -87 -17q-54 0 -88 23t-34 73q0 102 161 164l48 -28q-59 -33 -85 -60.5t-26 -53.5z" />
    <glyph glyph-name="comma" unicode="," horiz-adv-x="277" 
d="M142 -129h-76l63 129h-69v153h157v-153z" />
    <glyph glyph-name="semicolon" unicode=";" horiz-adv-x="297" 
d="M162 -129h-76l63 129h-69v153h157v-153zM80 385v153h157v-153h-157z" />
    <glyph glyph-name="colon" unicode=":" horiz-adv-x="297" 
d="M80 0v153h157v-153h-157zM80 385v153h157v-153h-157z" />
    <glyph glyph-name="period" unicode="." horiz-adv-x="277" 
d="M60 0v153h157v-153h-157z" />
    <glyph glyph-name="ellipsis" unicode="&#x2026;" horiz-adv-x="797" 
d="M60 0v153h157v-153h-157zM320 0v153h157v-153h-157zM580 0v153h157v-153h-157z" />
    <glyph glyph-name="hyphen" unicode="-" horiz-adv-x="400" 
d="M40 238v116h320v-116h-320z" />
    <glyph glyph-name="exclam" unicode="!" horiz-adv-x="297" 
d="M204 229h-91l-31 264v216h154v-216zM80 0v153h157v-153h-157z" />
    <glyph glyph-name="exclamdown" unicode="&#xa1;" horiz-adv-x="277" 
d="M217 538v-153h-157v153h157zM93 309h91l31 -264v-216h-154v216z" />
    <glyph glyph-name="question" unicode="?" horiz-adv-x="470" 
d="M460 545q0 -55 -24 -98t-94 -101q-37 -31 -52 -58t-18 -59h-117q0 45 4.5 72.5t23 58t59.5 65.5q42 36 56.5 60.5t14.5 53.5q0 31 -18 49.5t-54 18.5q-46 0 -73 -36.5t-36 -86.5l-112 17q2 111 61.5 167t164.5 56q71 0 119.5 -24.5t71.5 -65t23 -89.5zM139 0v153h157
v-153h-157z" />
    <glyph glyph-name="questiondown" unicode="&#xbf;" horiz-adv-x="470" 
d="M331 538v-153h-157v153h157zM10 -7q0 55 24 97.5t94 101.5q37 31 52 58t18 59h117q0 -45 -4.5 -72.5t-23 -58t-59.5 -65.5q-42 -36 -56.5 -60.5t-14.5 -53.5q0 -31 18 -49.5t54 -18.5q44 0 72 36t37 87l112 -17q-2 -111 -61.5 -167t-164.5 -56q-71 0 -119.5 24.5
t-71.5 65t-23 89.5z" />
    <glyph glyph-name="quoteleft" unicode="&#x2018;" horiz-adv-x="268" 
d="M60 467v147l71 124h71l-58 -124h64v-147h-148z" />
    <glyph glyph-name="quoteright" unicode="&#x2019;" horiz-adv-x="268" 
d="M137 467h-71l58 124h-64v147h148v-147z" />
    <glyph glyph-name="quotedblleft" unicode="&#x201c;" horiz-adv-x="496" 
d="M288 467v147l71 124h71l-58 -124h64v-147h-148zM60 467v147l71 124h71l-58 -124h64v-147h-148z" />
    <glyph glyph-name="quotedblright" unicode="&#x201d;" horiz-adv-x="496" 
d="M365 467h-71l58 124h-64v147h148v-147zM137 467h-71l58 124h-64v147h148v-147z" />
    <glyph glyph-name="quotesinglbase" unicode="&#x201a;" horiz-adv-x="268" 
d="M137 -123h-71l58 124h-64v147h148v-147z" />
    <glyph glyph-name="quotedblbase" unicode="&#x201e;" horiz-adv-x="496" 
d="M365 -123h-71l58 124h-64v147h148v-147zM137 -123h-71l58 124h-64v147h148v-147z" />
    <glyph glyph-name="guilsinglleft" unicode="&#x2039;" horiz-adv-x="421" 
d="M371 38h-138l-183 234l183 235h138l-182 -235z" />
    <glyph glyph-name="guilsinglright" unicode="&#x203a;" horiz-adv-x="421" 
d="M371 272l-183 -234h-138l182 234l-182 235h138z" />
    <glyph glyph-name="guillemotleft" unicode="&#xab;" horiz-adv-x="681" 
d="M371 38h-138l-183 234l183 235h138l-182 -235zM631 38h-138l-183 234l183 235h138l-182 -235z" />
    <glyph glyph-name="guillemotright" unicode="&#xbb;" horiz-adv-x="681" 
d="M371 272l-183 -234h-138l182 234l-182 235h138zM631 272l-183 -234h-138l182 234l-182 235h138z" />
    <glyph glyph-name="slash" unicode="/" horiz-adv-x="452" 
d="M20 -100l287 879h125l-287 -879h-125z" />
    <glyph glyph-name="bar" unicode="|" horiz-adv-x="371" 
d="M120 -136v957h131v-957h-131z" />
    <glyph glyph-name="endash" unicode="&#x2013;" horiz-adv-x="720" 
d="M40 238v116h640v-116h-640z" />
    <glyph glyph-name="emdash" unicode="&#x2014;" horiz-adv-x="1008" 
d="M40 238v116h928v-116h-928z" />
    <glyph glyph-name="bullet" unicode="&#x2022;" horiz-adv-x="420" 
d="M361 322q0 -41 -20 -76t-54.5 -55t-75.5 -20t-76 20t-55 55t-20 76t20 75.5t55 54.5t76 20t75.5 -20t54.5 -54.5t20 -75.5z" />
    <glyph glyph-name="glyph270" unicode="&#xb7;" horiz-adv-x="277" 
d="M60 265v153h157v-153h-157z" />
    <glyph glyph-name="parenleft" unicode="(" horiz-adv-x="386" 
d="M204 290q0 -130 41 -255.5t111 -203.5h-107q-45 34 -90 96t-77 155t-32 208t32 208t77 155t90 95h107q-70 -78 -111 -203t-41 -255z" />
    <glyph glyph-name="parenright" unicode=")" horiz-adv-x="386" 
d="M336 290q0 -115 -32 -208t-77 -155t-90 -96h-107q70 78 111 203.5t41 255.5t-41 255t-111 203h107q45 -33 90 -95t77 -155t32 -208z" />
    <glyph glyph-name="bracketleft" unicode="[" horiz-adv-x="421" 
d="M221 -50h140v-88h-271v919h271v-88h-140v-743z" />
    <glyph glyph-name="bracketright" unicode="]" horiz-adv-x="421" 
d="M331 -138h-271v88h140v743h-140v88h271v-919z" />
    <glyph glyph-name="braceleft" unicode="{" horiz-adv-x="425" 
d="M339 693q-37 0 -55 -8.5t-24 -26t-6 -49.5l1 -54v-66q0 -70 -33 -112t-115 -54v-2q82 -13 115 -55t33 -112v-63l-1 -54q0 -32 6 -49.5t24 -26.5t55 -9h26v-88h-74q-61 0 -91.5 13.5t-44 52.5t-13.5 121v85q0 72 -32 103.5t-100 31.5v101q68 0 100 31.5t32 103.5v87
q0 81 13.5 120.5t44 53t91.5 13.5h74v-88h-26z" />
    <glyph glyph-name="braceright" unicode="}" horiz-adv-x="425" 
d="M283 594v-87q0 -72 32 -103.5t100 -31.5v-101q-68 0 -100 -31.5t-32 -103.5v-85q0 -82 -13.5 -121t-44 -52.5t-91.5 -13.5h-74v88h26q37 0 55 9t24 26.5t6 49.5l-1 54v63q0 70 33 112t115 55v2q-82 12 -115 54t-33 112v66l1 54q0 32 -6 49.5t-24 26t-55 8.5h-26v88h74
q61 0 91.5 -13.5t44 -53t13.5 -120.5z" />
    <glyph glyph-name="asterisk" unicode="*" horiz-adv-x="509" 
d="M330 349l-76 126l-76 -125l-80 58l96 112l-144 33l30 95l137 -58l-12 148h98l-13 -149l138 58l31 -94l-145 -33l96 -112z" />
    <glyph glyph-name="dagger" unicode="&#x2020;" horiz-adv-x="490" 
d="M309 400v-500h-128v500h-151v111h151v198h128v-198h151v-111h-151z" />
    <glyph glyph-name="daggerdbl" unicode="&#x2021;" horiz-adv-x="490" 
d="M309 252h151v-111h-151v-241h-128v241h-151v111h151v148h-151v111h151v198h128v-198h151v-111h-151v-148z" />
    <glyph glyph-name="section" unicode="&#xa7;" horiz-adv-x="641" 
d="M541 -23q0 -52 -24.5 -94t-74.5 -67t-123 -25q-107 0 -165 51.5t-58 143.5l110 11q13 -52 42 -75.5t74 -23.5q82 0 82 68q0 30 -24 50.5t-90 43.5q-84 29 -132 55t-73 62.5t-25 90.5q0 49 25 84.5t73 55.5q-29 25 -43.5 56t-14.5 75q0 52 24.5 94t74.5 67t123 25
q107 0 165 -51.5t58 -143.5l-110 -11q-13 52 -42 75.5t-74 23.5q-82 0 -82 -68q0 -30 24 -50.5t90 -43.5q84 -29 132 -55t73 -62.5t25 -90.5q0 -49 -25 -84.5t-73 -55.5q29 -25 43.5 -56t14.5 -75zM347 177q39 -14 67 -28q43 21 43 71q0 29 -17 47.5t-46.5 32t-99.5 39.5
q-39 14 -67 28q-43 -21 -43 -71q0 -29 17 -47.5t46.5 -32t99.5 -39.5z" />
    <glyph glyph-name="paragraph" unicode="&#xb6;" horiz-adv-x="692" 
d="M312 -127v364h-18q-79 0 -137.5 29.5t-89.5 83.5t-31 125q0 108 69 171t189 63h144v-836h-126zM530 -127v836h126v-836h-126z" />
    <glyph glyph-name="asciicircum" unicode="^" 
d="M290 603l-161 -333h-123l215 439h137l216 -439h-123z" />
    <glyph glyph-name="asciitilde" unicode="~" 
d="M305 360q28 -14 47 -20.5t38 -6.5q29 0 44.5 16.5t17.5 42.5h98q0 -77 -39 -119.5t-102 -42.5q-31 0 -60 9.5t-68 26.5q-36 14 -53 20t-34 6q-28 0 -45 -17.5t-21 -42.5h-98q0 77 43.5 120t108.5 43q33 0 60.5 -9t62.5 -26z" />
    <glyph glyph-name="brokenbar" unicode="&#xa6;" horiz-adv-x="371" 
d="M120 444v377h131v-377h-131zM120 -136v377h131v-377h-131z" />
    <glyph glyph-name="backslash" unicode="\" horiz-adv-x="452" 
d="M432 -100h-125l-287 879h125z" />
    <glyph glyph-name="underscore" unicode="_" 
d="M-5 -130v60h590v-60h-590z" />
    <glyph glyph-name="quotesingle" unicode="'" horiz-adv-x="259" 
d="M69 443l-9 295h139l-9 -295h-121z" />
    <glyph glyph-name="quotedbl" unicode="&#x22;" horiz-adv-x="479" 
d="M69 443l-9 295h139l-9 -295h-121zM289 443l-9 295h139l-9 -295h-121z" />
    <glyph glyph-name="at" unicode="@" horiz-adv-x="931" 
d="M891 325q0 -82 -25.5 -142t-69 -91t-98.5 -31q-105 0 -132 87q-21 -41 -61 -64t-86 -23q-79 0 -128 51t-49 146q0 69 24 126t70.5 90.5t111.5 33.5q41 0 73.5 -16t47.5 -52l6 61h102l-27 -264q-2 -22 -2 -30q0 -74 56 -74q38 0 61.5 47t23.5 145t-40.5 167t-113.5 104.5
t-168 35.5q-93 0 -167 -44.5t-116 -124.5t-42 -181t40 -177t116.5 -117.5t181.5 -41.5q48 0 93.5 7.5t102.5 26.5l39 -65q-49 -28 -112.5 -40.5t-121.5 -12.5q-138 0 -237.5 52.5t-151.5 147.5t-52 220q0 124 54 223t151 155.5t222 56.5t221.5 -49.5t149.5 -138.5t53 -204z
M354 259q0 -53 20.5 -81.5t57.5 -28.5q41 0 67.5 28.5t38.5 69t12 77.5q0 99 -85 99q-50 0 -80.5 -47.5t-30.5 -116.5z" />
    <glyph glyph-name="copyright" unicode="&#xa9;" horiz-adv-x="805" 
d="M769 356q0 -103 -48 -186.5t-132 -131.5t-186 -48q-103 0 -187 48t-132 131.5t-48 186.5t48.5 187t132 132t186.5 48q102 0 186 -48t132 -132t48 -187zM119 356q0 -82 36.5 -148.5t101 -104.5t146.5 -38q81 0 145.5 38t101 104.5t36.5 148.5t-36.5 148.5t-101 104.5
t-145.5 38q-82 0 -146.5 -38t-101 -104.5t-36.5 -148.5zM584 472l-82 -39q-21 34 -43 45.5t-52 11.5q-51 0 -81.5 -33.5t-30.5 -98.5q0 -64 31.5 -97.5t80.5 -33.5q34 0 55 13.5t44 52.5l81 -40q-31 -60 -72 -87.5t-107 -27.5q-61 0 -108 29t-73 79t-26 112t26 112.5
t73 79.5t108 29q122 0 176 -107z" />
    <glyph glyph-name="registered" unicode="&#xae;" horiz-adv-x="805" 
d="M769 356q0 -103 -48 -186.5t-132 -131.5t-186 -48q-103 0 -187 48t-132 131.5t-48 186.5t48.5 187t132 132t186.5 48q102 0 186 -48t132 -132t48 -187zM686 356q0 82 -36.5 148.5t-101 104.5t-145.5 38q-82 0 -146.5 -38t-101 -104.5t-36.5 -148.5t36.5 -148.5
t101 -104.5t146.5 -38q81 0 145.5 38t101 104.5t36.5 148.5zM483 316l96 -160h-97l-87 148h-51v-148h-86v412h169q60 0 98 -36t38 -95q0 -40 -22 -73t-58 -48zM472 440q0 56 -72 56h-56v-118h56q35 0 53.5 17t18.5 45z" />
    <glyph glyph-name="trademark" unicode="&#x2122;" horiz-adv-x="1016" 
d="M331 560l-7 81h-58v-287h45v-68h-186v68h45v287h-58l-7 -81h-75v149h376v-149h-75zM945 641v-287h41v-68h-172v68h41v283l-112 -351h-61l-109 347v-279h42v-68h-165v68h41v287h-41v68h186l82 -274l79 274h189v-68h-41z" />
    <glyph glyph-name="currency" unicode="&#xa4;" 
d="M169 524q53 32 123 32q66 0 120 -30l75 75l64 -63l-72 -72q38 -55 38 -126t-38 -126l73 -73l-64 -63l-76 76q-55 -30 -120 -30q-69 0 -124 32l-77 -77l-63 63l75 75q-36 53 -36 123t36 123l-76 76l64 63zM187 340q0 -51 29.5 -80t75.5 -29t75.5 29t29.5 80t-29.5 80
t-75.5 29t-75.5 -29t-29.5 -80z" />
    <glyph glyph-name="Euro" unicode="&#x20ac;" 
d="M464 171l108 -12q-5 -86 -61.5 -130.5t-156.5 -44.5q-109 0 -176.5 66t-87.5 191h-60v91h51v22q0 24 1 36h-52v91h62q23 118 89.5 180.5t172.5 62.5q101 0 157 -44.5t61 -130.5l-108 -12q-10 37 -37 57t-66 20q-50 0 -79.5 -32.5t-42.5 -100.5h187v-91h-195l-1 -36v-22
h196v-91h-189q11 -75 41.5 -111t82.5 -36q39 0 66 20t37 57z" />
    <glyph glyph-name="dollar" unicode="$" 
d="M340 -8v-93h-102v94q-89 12 -145.5 66.5t-58.5 162.5l108 17q12 -64 49.5 -103t103.5 -39q51 0 78 25.5t27 67.5q0 39 -27.5 64t-98.5 51l-64 23q-76 27 -116 71.5t-40 116.5q0 76 48 132t136 69v88h102v-89q76 -12 124.5 -58t54.5 -135l-106 -16q-14 50 -48 78t-84 28
q-45 0 -68.5 -22t-23.5 -55t20 -53t76 -40l57 -20q100 -35 146.5 -81t46.5 -129q0 -94 -52.5 -151.5t-142.5 -69.5z" />
    <glyph glyph-name="cent" unicode="&#xa2;" 
d="M369 -9v-92h-102v88q-108 14 -156.5 94.5t-48.5 187.5q0 105 50 185.5t155 95.5v94h102v-96q70 -14 108.5 -60.5t43.5 -115.5l-109 -17q-13 43 -36.5 66.5t-63.5 23.5q-52 0 -79.5 -45t-27.5 -131q0 -85 28 -130.5t80 -45.5q46 0 72.5 33.5t33.5 94.5l104 -18
q-2 -87 -40 -142t-114 -70z" />
    <glyph glyph-name="sterling" unicode="&#xa3;" 
d="M546 0h-509v102q52 15 69.5 50.5t17.5 100.5q0 18 -2 46h-85v99h71q-7 39 -10.5 64t-3.5 56q0 56 24 103t75.5 75.5t129.5 28.5q99 0 158.5 -52t59.5 -159l-108 -18q-11 56 -35 86.5t-76 30.5q-41 0 -61 -26t-20 -79q0 -27 3 -55t7 -55h176v-99h-166v-25q0 -116 -75 -172
h242l10 116h108v-218z" />
    <glyph glyph-name="yen" unicode="&#xa5;" 
d="M426 437h105v-91h-153l-16 -29v-29h169v-91h-169v-95h65v-102h-270v102h65v95h-173v91h173v25l-18 33h-155v91h108l-90 170h-48v102h241v-102h-51l90 -186l89 186h-49v102h223v-102h-44z" />
    <glyph glyph-name="uni20A8" unicode="&#x20a8;" 
d="M471 554h67v-91h-62q-9 -81 -64.5 -128.5t-137.5 -55.5l144 -177h66v-102h-148l-272 341v45h138q49 0 81 19.5t42 57.5h-261v91h256q-13 31 -43.5 47.5t-74.5 16.5h-138v91h474v-91h-98q23 -29 31 -64z" />
    <glyph glyph-name="uni20BA" unicode="&#x20ba;" 
d="M237 0h-115v250l-76 -34v92l76 34v73l-76 -34v92l76 34v202h140v-139l159 72v-92l-159 -72v-73l159 72v-92l-159 -72v-206q165 0 187 191l113 -17q-5 -136 -86 -208.5t-239 -72.5z" />
    <glyph glyph-name="uni20BD" unicode="&#x20bd;" 
d="M269 258h160v-91h-160v-65h70v-102h-276v102h62v65h-93v91h93v59h-93v91h93v199h-62v102h279q101 0 160.5 -51.5t59.5 -147.5q0 -95 -59 -144t-161 -49h-73v-59zM319 408q52 0 80 25.5t28 74.5t-27.5 74t-80.5 25h-50v-199h50z" />
    <glyph glyph-name="ordfeminine" unicode="&#xaa;" horiz-adv-x="432" 
d="M347 355q-43 0 -59 9.5t-23 35.5q-19 -24 -50.5 -38.5t-65.5 -14.5q-55 0 -87 28t-32 77q0 46 26.5 73.5t95.5 47.5l45 13q35 9 47.5 17.5t12.5 24.5q0 17 -12.5 26t-33.5 9q-33 0 -53 -19t-25 -43l-89 16q3 60 45 95.5t120 35.5q81 0 120.5 -30.5t39.5 -97.5v-159
q0 -13 4.5 -18t19.5 -5h9v-83h-55zM257 460v73l-51 -17q-35 -12 -49 -24t-14 -28q0 -14 11 -22.5t30 -8.5q42 0 73 27z" />
    <glyph glyph-name="ordmasculine" unicode="&#xba;" horiz-adv-x="439" 
d="M409 546q0 -91 -49.5 -146.5t-140.5 -55.5t-140 55t-49 146q0 92 49 147.5t140 55.5t140.5 -55.5t49.5 -146.5zM153 545q0 -107 66 -107q67 0 67 108q0 107 -67 107q-66 0 -66 -108z" />
    <glyph glyph-name="numbersign" unicode="#" 
d="M424 278h112v-76h-126l-37 -202h-84l37 202h-129l-37 -202h-83l37 202h-90v76h104l30 159h-114v76h128l36 196h83l-36 -196h129l36 196h83l-36 -196h89v-76h-103zM240 437l-29 -159h129l29 159h-129z" />
    <glyph glyph-name="uni2116" unicode="&#x2116;" horiz-adv-x="1048" 
d="M657 537q0 81 48.5 131.5t133.5 50.5q86 0 134.5 -49.5t48.5 -132.5t-48.5 -133t-134.5 -50t-134 50t-48 133zM622 607h-62v-607h-150l-188 513v-411h62v-102h-248v102h62v505h-62v102h222l178 -487v385h-62v102h248v-102zM770 537q0 -49 19 -74.5t50 -25.5
q32 0 50.5 25.5t18.5 74.5t-18.5 74t-50.5 25q-31 0 -50 -25t-19 -74zM1014 318v-97h-349v97h349z" />
    <glyph glyph-name="zero" unicode="0" 
d="M550 354q0 -180 -64.5 -274.5t-195.5 -94.5t-195.5 94.5t-64.5 274.5q0 181 64.5 275.5t195.5 94.5t195.5 -94.5t64.5 -275.5zM179 354q0 -134 26.5 -195.5t84.5 -61.5t84.5 61.5t26.5 195.5t-26.5 196t-84.5 62t-84.5 -62t-26.5 -196z" />
    <glyph glyph-name="one" unicode="1" horiz-adv-x="480" 
d="M447 98v-98h-385v98h125v480l-125 -67v110l150 88h115v-611h120z" />
    <glyph glyph-name="two" unicode="2" 
d="M541 0h-515v29q0 81 27 136t70 92t127 92q57 38 87 65t41.5 52t11.5 57q0 40 -24 64.5t-70 24.5q-109 0 -135 -166l-114 15q1 132 71 197.5t181 65.5q83 0 136 -28.5t76.5 -74t23.5 -99.5q0 -64 -24 -109t-65 -78.5t-123 -86.5q-81 -53 -114.5 -82.5t-43.5 -63.5h258
l10 116h108v-218z" />
    <glyph glyph-name="three" unicode="3" 
d="M541 200q0 -58 -26.5 -106.5t-83 -78.5t-141.5 -30q-119 0 -188.5 58t-69.5 187l117 13q6 -65 40.5 -105.5t96.5 -40.5q53 0 82.5 29t29.5 79q0 58 -40.5 85t-126.5 27v99q83 1 119.5 28t36.5 81q0 41 -25.5 64t-70.5 23q-58 0 -88 -34t-42 -95l-111 15q2 109 68.5 167.5
t175.5 58.5q76 0 128 -26t77 -69t25 -94q0 -118 -109 -161q59 -21 92.5 -64t33.5 -110z" />
    <glyph glyph-name="four" unicode="4" 
d="M469 98h61v-98h-272v98h77v99h-304v117l245 395h193v-414h94v-98h-94v-99zM335 607l-191 -312h191v312z" />
    <glyph glyph-name="five" unicode="5" 
d="M540 224q0 -61 -27 -115t-83.5 -88.5t-140.5 -34.5q-107 0 -173 52.5t-75 165.5l111 18q12 -61 45 -92.5t91 -31.5q52 0 81.5 35t29.5 92q0 61 -33 97t-96 36q-27 0 -53 -10.5t-48 -32.5l-114 14l41 380h427v-200h-108l-9 98h-203l-22 -190q52 44 133 44
q109 0 167.5 -65.5t58.5 -171.5z" />
    <glyph glyph-name="six" unicode="6" 
d="M554 235q0 -72 -30.5 -129t-86 -89t-128.5 -32q-127 0 -200.5 84t-73.5 254q0 125 33 215t96 138t152 48q92 0 153.5 -45t68.5 -148l-110 -15q-14 47 -39 71.5t-71 24.5q-130 0 -143 -222q56 67 161 67q65 0 114.5 -28t76.5 -78.5t27 -115.5zM415 223q0 56 -29 93t-87 37
q-78 0 -125 -58q4 -101 36 -149.5t95 -48.5q51 0 80.5 36.5t29.5 89.5z" />
    <glyph glyph-name="seven" unicode="7" 
d="M563 607q-95 -117 -145.5 -204t-73 -180.5t-22.5 -222.5h-155q0 171 65.5 313.5t204.5 293.5h-279l-9 -109h-108v211h522v-102z" />
    <glyph glyph-name="eight" unicode="8" 
d="M548 184q0 -92 -65 -145.5t-194 -53.5q-122 0 -190 50.5t-68 140.5q0 64 35 113t106 78q-61 38 -86 79t-25 90q0 55 29.5 97.5t83 66.5t123.5 24q65 0 117.5 -23t82 -65t29.5 -97q0 -111 -115 -160q64 -37 100.5 -84t36.5 -111zM198 542q0 -37 28.5 -63t91.5 -55
q80 42 80 109q0 44 -29 66.5t-75 22.5q-45 0 -70.5 -22t-25.5 -58zM409 186q0 31 -20 54.5t-50.5 40.5t-85.5 43q-93 -46 -93 -130q0 -44 34 -73t95 -29q60 0 90 25.5t30 68.5z" />
    <glyph glyph-name="nine" unicode="9" 
d="M545 384q0 -190 -70.5 -294.5t-204.5 -104.5q-94 0 -158 47t-72 149l114 15q13 -47 39.5 -73t75.5 -26q126 0 136 222q-56 -67 -161 -67q-65 0 -114.5 28t-76.5 78.5t-27 115.5q0 72 30.5 129t86 89t128.5 32q127 0 200.5 -85t73.5 -255zM406 414q-4 101 -35.5 149.5
t-95.5 48.5q-51 0 -80.5 -36.5t-29.5 -89.5q0 -56 29 -93t87 -37q78 0 125 58z" />
    <glyph glyph-name="fraction" unicode="&#x2044;" horiz-adv-x="127" 
d="M-200 0l422 709h105l-422 -709h-105z" />
    <glyph glyph-name="onequarter" unicode="&#xbc;" horiz-adv-x="949" 
d="M319 357v-73h-259v73h76v258l-76 -36v83l90 47h96v-352h73zM199 0l422 709h105l-422 -709h-105zM830 73h37v-73h-189v73h49v43h-191v85l147 224h147v-237h59v-72h-59v-43zM727 345l-101 -157h101v157z" />
    <glyph glyph-name="onehalf" unicode="&#xbd;" horiz-adv-x="980" 
d="M319 357v-73h-259v73h76v258l-76 -36v83l90 47h96v-352h73zM199 0l422 709h105l-422 -709h-105zM920 0h-344v19q0 50 17.5 83.5t45.5 56.5t83 57q51 31 68.5 49t17.5 43q0 18 -12.5 29.5t-36.5 11.5q-36 0 -55 -23t-23 -63l-90 13q0 84 47 121.5t121 37.5
q84 0 121.5 -37.5t37.5 -90.5q0 -39 -18.5 -67.5t-46 -47.5t-81.5 -49q-72 -40 -88 -63h145l6 59h85v-139z" />
    <glyph glyph-name="threequarters" unicode="&#xbe;" horiz-adv-x="989" 
d="M397 406q0 -56 -41 -93.5t-126 -37.5q-77 0 -123 34.5t-47 114.5l86 8q12 -72 80 -72q30 0 47 13.5t17 38.5q0 34 -23 46.5t-82 12.5v66q55 1 77 13t22 40q0 21 -16.5 32t-38.5 11q-62 0 -72 -61l-87 12q3 68 46 101.5t116 33.5q74 0 114.5 -33.5t40.5 -82.5
q0 -68 -63 -95q73 -27 73 -102zM239 0l422 709h105l-422 -709h-105zM870 73h37v-73h-189v73h49v43h-191v85l147 224h147v-237h59v-72h-59v-43zM767 345l-101 -157h101v157z" />
    <glyph glyph-name="percent" unicode="%" horiz-adv-x="944" 
d="M400 517q0 -90 -47.5 -145t-132.5 -55t-132.5 55t-47.5 145q0 91 47.5 146.5t132.5 55.5t132.5 -55.5t47.5 -146.5zM214 0l422 709h105l-422 -709h-105zM151 517q0 -56 17 -87t52 -31t52 31t17 87q0 119 -69 119t-69 -119zM904 190q0 -90 -47.5 -145t-132.5 -55
t-132.5 55t-47.5 145q0 91 47.5 146.5t132.5 55.5t132.5 -55.5t47.5 -146.5zM655 190q0 -56 17 -87t52 -31t52 31t17 87q0 119 -69 119t-69 -119z" />
    <glyph glyph-name="perthousand" unicode="&#x2030;" horiz-adv-x="1346" 
d="M400 517q0 -90 -47.5 -145t-132.5 -55t-132.5 55t-47.5 145q0 91 47.5 146.5t132.5 55.5t132.5 -55.5t47.5 -146.5zM214 0l422 709h105l-422 -709h-105zM151 517q0 -56 17 -87t52 -31t52 31t17 87q0 119 -69 119t-69 -119zM904 190q0 -90 -47.5 -145t-132.5 -55
t-132.5 55t-47.5 145q0 91 47.5 146.5t132.5 55.5t132.5 -55.5t47.5 -146.5zM1314 190q0 -90 -47.5 -145t-132.5 -55t-132.5 55t-47.5 145q0 91 47.5 146.5t132.5 55.5t132.5 -55.5t47.5 -146.5zM655 190q0 -56 17 -87t52 -31t52 31t17 87q0 119 -69 119t-69 -119zM1065 190
q0 -56 17 -87t52 -31t52 31t17 87q0 119 -69 119t-69 -119z" />
    <glyph glyph-name="plus" unicode="+" 
d="M346 245v-206h-112v206h-204v108h204v206h112v-206h204v-108h-204z" />
    <glyph glyph-name="minus" unicode="&#x2212;" 
d="M30 245v108h520v-108h-520z" />
    <glyph glyph-name="plusminus" unicode="&#xb1;" 
d="M550 345h-204v-176h-112v176h-204v108h204v176h112v-176h204v-108zM550 108v-108h-520v108h520z" />
    <glyph glyph-name="multiply" unicode="&#xd7;" 
d="M542 123l-76 -76l-176 176l-176 -176l-76 76l176 176l-176 176l76 76l176 -176l176 176l76 -76l-176 -176z" />
    <glyph glyph-name="divide" unicode="&#xf7;" 
d="M212 419v153h157v-153h-157zM30 246v108h520v-108h-520zM212 28v153h157v-153h-157z" />
    <glyph glyph-name="equal" unicode="=" 
d="M30 350v108h520v-108h-520zM30 140v108h520v-108h-520z" />
    <glyph glyph-name="notequal" unicode="&#x2260;" 
d="M316 248h234v-108h-275l-38 -99h-90l38 99h-155v108h196l39 102h-235v108h276l38 99h90l-38 -99h154v-108h-195z" />
    <glyph glyph-name="approxequal" unicode="&#x2248;" 
d="M297 457q33 -14 55.5 -21.5t45.5 -7.5q27 0 48.5 11t53.5 43l65 -78q-50 -50 -83.5 -66.5t-79.5 -16.5q-26 0 -49.5 8t-57.5 23q-37 16 -61 23.5t-50 7.5q-30 0 -50.5 -12t-53.5 -42l-65 78q46 46 82 64.5t81 18.5q29 0 55 -8t64 -25zM297 243q33 -14 55.5 -21.5
t45.5 -7.5q27 0 48.5 11t53.5 43l65 -78q-50 -50 -83.5 -66.5t-79.5 -16.5q-26 0 -49.5 8t-57.5 23q-37 16 -61 23.5t-50 7.5q-30 0 -51 -12t-53 -43l-65 79q46 45 82 63.5t81 18.5q29 0 53 -7.5t66 -24.5z" />
    <glyph glyph-name="less" unicode="&#x3c;" 
d="M173 299l377 -116v-103l-520 170v98l520 170v-103z" />
    <glyph glyph-name="greater" unicode="&#x3e;" 
d="M550 250l-520 -170v103l377 116l-377 116v103l520 -170v-98z" />
    <glyph glyph-name="lessequal" unicode="&#x2264;" 
d="M173 363l377 -116v-103l-520 170v98l520 170v-103zM550 108v-108h-520v108h520z" />
    <glyph glyph-name="greaterequal" unicode="&#x2265;" 
d="M550 314l-520 -170v103l377 116l-377 116v103l520 -170v-98zM550 108v-108h-520v108h520z" />
    <glyph glyph-name="logicalnot" unicode="&#xac;" 
d="M438 39v206h-408v108h520v-314h-112z" />
    <glyph glyph-name="mu" unicode="&#xb5;" horiz-adv-x="576" 
d="M384 0v64q-21 -35 -48.5 -55.5t-68.5 -20.5q-26 0 -50 9v-99h55v-98h-247v98h55v542h-52v98h189v-354q0 -40 20.5 -59.5t52.5 -19.5q46 0 82 36v299h-52v98h189v-440h52v-98h-177z" />
    <glyph glyph-name="pi" unicode="&#x3c0;" horiz-adv-x="597" 
d="M529 95q12 0 22 2v-102q-23 -7 -58 -7q-71 0 -103 33t-32 109v310h-119v-342h52v-98h-241v98h52v342h-62v98h517v-98h-62v-303q0 -24 8 -33t26 -9z" />
    <glyph glyph-name="degree" unicode="&#xb0;" horiz-adv-x="424" 
d="M384 606q0 -45 -22.5 -83t-62 -60.5t-87.5 -22.5t-87.5 22.5t-62 60.5t-22.5 83t22.5 83t62 60.5t87.5 22.5t87.5 -22.5t62 -60.5t22.5 -83zM124 606q0 -38 25 -64t63 -26t62 26t24 64t-24 64t-62 26t-63 -26t-25 -64z" />
    <glyph glyph-name="infinity" unicode="&#x221e;" horiz-adv-x="861" 
d="M797 290q0 -51 -23.5 -90.5t-65 -62t-93.5 -22.5q-100 0 -179 92q-44 -53 -87 -72.5t-87 -19.5q-54 0 -96.5 22t-66.5 61.5t-24 91.5q0 51 23.5 91t64.5 62.5t92 22.5q59 0 104 -24t85 -76q38 54 80.5 77t96.5 23q50 0 90 -22.5t63 -62.5t23 -91zM379 279l-1 1
q-38 48 -61.5 66.5t-56.5 18.5q-36 0 -58.5 -21t-22.5 -55t23.5 -54.5t61.5 -20.5q29 0 60 17t55 48zM693 289q0 33 -22.5 54.5t-53.5 21.5q-33 0 -60 -18t-55 -60q29 -37 55 -55.5t59 -18.5q32 0 54.5 21.5t22.5 54.5z" />
    <glyph glyph-name="summation" unicode="&#x2211;" horiz-adv-x="570" 
d="M188 607l215 -302l-215 -303h223l10 122h113v-224h-498v102l209 303l-209 302v102h498v-224h-113l-10 122h-223z" />
    <glyph glyph-name="product" unicode="&#x220f;" horiz-adv-x="673" 
d="M575 2h62v-102h-268v102h62v605h-189v-605h62v-102h-268v102h62v605h-62v102h601v-102h-62v-605z" />
    <glyph glyph-name="lozenge" unicode="&#x25ca;" horiz-adv-x="508" 
d="M308 41h-108l-180 303l180 304h108l180 -304zM254 161l108 183l-108 184l-108 -184z" />
    <glyph glyph-name="Idotaccent" unicode="&#x130;" horiz-adv-x="340" 
d="M304 102v-102h-268v102h62v505h-62v102h268v-102h-62v-505h62zM97 763v121h149v-121h-149z" />
    <glyph glyph-name="Tcedilla" unicode="&#x162;" horiz-adv-x="630" 
d="M597 475h-113l-10 132h-87v-505h68v-102h-100l-28 -45q54 -10 83.5 -36t29.5 -68q0 -51 -35 -78t-89 -27q-47 0 -81 13.5t-55 31.5l28 53q20 -13 46 -21t50 -8q48 0 48 36q0 28 -35 40t-87 16v6l47 87h-102v102h68v505h-87l-10 -132h-113v234h564v-234z" />
    <glyph glyph-name="dcroat" unicode="&#x111;" horiz-adv-x="578" 
d="M497 98h55v-98h-182v66q-24 -39 -61.5 -60t-85.5 -21q-94 0 -145.5 71.5t-51.5 199.5t51.5 199.5t145.5 71.5q84 0 137 -67v113h-123v91h123v74h137v-74h55v-91h-55v-475zM360 132v248q-38 38 -87 38q-52 0 -78 -38.5t-26 -123.5t26 -123.5t78 -38.5q49 0 87 38z" />
    <glyph glyph-name="i.loclTRK" horiz-adv-x="301" 
d="M34 0v98h52v342h-52v98h189v-440h52v-98h-241zM74 617v121h149v-121h-149z" />
    <glyph glyph-name="tcedilla" unicode="&#x163;" horiz-adv-x="397" 
d="M241 -12l-21 -33q54 -10 83.5 -36t29.5 -68q0 -51 -35 -78t-89 -27q-47 0 -81 13.5t-55 31.5l28 53q20 -13 46 -21t50 -8q48 0 48 36q0 28 -35 40t-87 16v6l45 83q-91 27 -91 151v296h-67v95h67v136h137v-136h144v-95h-144v-287q0 -33 10 -46.5t30 -13.5q24 0 36 20.5
t17 66.5l81 -12q-3 -90 -39 -135t-108 -48z" />
    <glyph glyph-name="one.tf" 
d="M546 98v-98h-460v98h165v478l-165 -92v110l190 115h115v-611h155z" />
    <glyph glyph-name="twoinferior" unicode="&#x2082;" horiz-adv-x="464" 
d="M404 0h-344v19q0 50 17.5 83.5t45.5 56.5t83 57q51 31 68.5 49t17.5 43q0 18 -12.5 29.5t-36.5 11.5q-36 0 -55 -23t-23 -63l-90 13q0 84 47 121.5t121 37.5q84 0 121.5 -37.5t37.5 -90.5q0 -39 -18.5 -67.5t-46 -47.5t-81.5 -49q-72 -40 -88 -63h145l6 59h85v-139z" />
    <glyph glyph-name="fourinferior" unicode="&#x2084;" horiz-adv-x="473" 
d="M354 73h37v-73h-189v73h49v43h-191v85l147 224h147v-237h59v-72h-59v-43zM251 345l-101 -157h101v157z" />
    <glyph glyph-name="onesuperior" unicode="&#xb9;" horiz-adv-x="379" 
d="M319 357v-73h-259v73h76v258l-76 -36v83l90 47h96v-352h73z" />
    <glyph glyph-name="twosuperior" unicode="&#xb2;" horiz-adv-x="464" 
d="M404 284h-344v19q0 50 17.5 83.5t45.5 56.5t83 57q51 31 68.5 49t17.5 43q0 18 -12.5 29.5t-36.5 11.5q-36 0 -54.5 -23t-23.5 -63l-90 13q0 84 47 121.5t121 37.5q84 0 121.5 -37.5t37.5 -90.5q0 -39 -18.5 -67.5t-46 -47.5t-81.5 -49q-72 -40 -88 -63h145l6 59h85v-139
z" />
    <glyph glyph-name="threesuperior" unicode="&#xb3;" horiz-adv-x="459" 
d="M397 406q0 -56 -41 -93.5t-126 -37.5q-77 0 -123 34.5t-47 114.5l86 8q12 -72 80 -72q30 0 47 13.5t17 38.5q0 34 -23 46.5t-82 12.5v66q55 1 77 13t22 40q0 21 -16.5 32t-38.5 11q-62 0 -72 -61l-87 12q3 68 46 101.5t116 33.5q74 0 114.5 -33.5t40.5 -82.5
q0 -68 -63 -95q73 -27 73 -102z" />
    <glyph glyph-name="uni20B8" unicode="&#x20b8;" 
d="M553 618h-526v91h526v-91zM553 360h-102l-10 110h-84v-368h71v-102h-276v102h71v368h-84l-10 -110h-102v197h526v-197z" />
    <glyph glyph-name="macron" unicode="&#xaf;" horiz-adv-x="415" 
d="M52 641v97h311v-97h-311z" />
    <glyph glyph-name="uni0326.alt" horiz-adv-x="0" 
d="M51 617v119l60 91h72l-62 -91h65v-119h-135z" />
    <glyph glyph-name="uni0326" unicode="&#x326;" horiz-adv-x="0" 
d="M132 -259h-70l60 89h-64v116h133v-116z" />
    <glyph glyph-name="uni0410" unicode="&#x410;" horiz-adv-x="655" 
d="M640 0h-255v102h61l-27 109h-195l-27 -109h59v-102h-241v102h51l137 505h-60v102h366v-102h-55l135 -505h51v-102zM322 611l-73 -298h146z" />
    <glyph glyph-name="uni0411" unicode="&#x411;" horiz-adv-x="594" 
d="M568 209q0 -101 -63.5 -155t-171.5 -54h-297v102h62v505h-62v102h484v-214h-113l-10 112h-155v-184h91q107 0 171 -56.5t64 -157.5zM424 211q0 53 -29.5 81.5t-84.5 28.5h-68v-219h68q55 0 84.5 28t29.5 81z" />
    <glyph glyph-name="uni0412" unicode="&#x412;" horiz-adv-x="607" 
d="M577 199q0 -97 -60.5 -148t-175.5 -51h-305v102h62v505h-62v102h294q224 0 224 -174q0 -60 -31 -101t-87 -60q68 -18 104.5 -62t36.5 -113zM312 421q49 0 77 22t28 74q0 90 -105 90h-70v-186h70zM433 210q0 55 -32.5 80.5t-89.5 25.5h-69v-214h69q57 0 89.5 26.5
t32.5 81.5z" />
    <glyph glyph-name="uni0413" unicode="&#x413;" horiz-adv-x="540" 
d="M507 485h-113l-10 122h-142v-505h67v-102h-273v102h62v505h-62v102h471v-224z" />
    <glyph glyph-name="uni0490" unicode="&#x490;" horiz-adv-x="503" 
d="M242 102h67v-102h-273v102h62v505h-62v102h318l10 137h113v-239h-235v-505z" />
    <glyph glyph-name="uni0414" unicode="&#x414;" horiz-adv-x="705" 
d="M669 -137h-113l-10 137h-397l-10 -137h-113v239h8q50 0 74 28t37 110t27 272l7 95h-78v102h558v-102h-62v-505h72v-239zM453 607h-145l-9 -110q-14 -186 -25 -269t-33 -126h212v505z" />
    <glyph glyph-name="uni0415" unicode="&#x415;" horiz-adv-x="589" 
d="M429 485l-10 122h-177v-183h177v-106h-177v-216h177l10 137h113v-239h-506v102h62v505h-62v102h506v-224h-113z" />
    <glyph glyph-name="uni0401" unicode="&#x401;" horiz-adv-x="589" 
d="M429 485l-10 122h-177v-183h177v-106h-177v-216h177l10 137h113v-239h-506v102h62v505h-62v102h506v-224h-113zM132 763v121h129v-121h-129zM337 763v121h129v-121h-129z" />
    <glyph glyph-name="uni0416" unicode="&#x416;" horiz-adv-x="898" 
d="M882 0h-156l-208 358v-256h52v-102h-242v102h52v256l-208 -358h-156v102h53l172 279l-174 226h-44v102h236v-102h-44l165 -231v231h-52v102h242v-102h-52v-231l165 231h-44v102h236v-102h-44l-173 -225l171 -280h53v-102z" />
    <glyph glyph-name="uni0417" unicode="&#x417;" horiz-adv-x="585" 
d="M550 201q0 -58 -27.5 -107t-85.5 -79t-147 -30q-265 0 -265 245l121 12q5 -65 38 -103.5t102 -38.5q57 0 87.5 29t30.5 78q0 57 -39 82.5t-125 25.5h-29v107h30q82 0 118 24.5t36 76.5q0 41 -27.5 63.5t-77.5 22.5q-61 0 -93 -32.5t-44 -91.5l-113 14q4 110 72 167.5
t185 57.5q78 0 131 -25.5t79 -68.5t26 -96q0 -122 -112 -158q59 -18 94 -62t35 -113z" />
    <glyph glyph-name="uni0418" unicode="&#x418;" horiz-adv-x="705" 
d="M607 102h62v-102h-253v102h62v391l-243 -493h-199v102h62v505h-62v102h253v-102h-62v-400l244 502h198v-102h-62v-505z" />
    <glyph glyph-name="uni0419" unicode="&#x419;" horiz-adv-x="705" 
d="M607 102h62v-102h-253v102h62v391l-243 -493h-199v102h62v505h-62v102h253v-102h-62v-400l244 502h198v-102h-62v-505zM354 744q-78 0 -122.5 39.5t-44.5 108.5h97q0 -33 18 -52t52 -19t52 19t18 52h97q0 -69 -45 -108.5t-122 -39.5z" />
    <glyph glyph-name="uni041A" unicode="&#x41a;" horiz-adv-x="647" 
d="M631 0h-161l-228 356v-254h62v-102h-268v102h62v505h-62v102h268v-102h-62v-228l183 228h-42v102h241v-102h-51l-189 -223l186 -282h61v-102z" />
    <glyph glyph-name="uni041B" unicode="&#x41b;" horiz-adv-x="683" 
d="M585 102h62v-102h-268v102h62v505h-135l-7 -110q-15 -226 -30 -322.5t-53 -139t-121 -42.5q-24 0 -45 4t-29 8v108q8 -2 24 -2q43 0 65 26.5t36 110.5t26 264l6 95h-80v102h549v-102h-62v-505z" />
    <glyph glyph-name="uni041C" unicode="&#x41c;" horiz-adv-x="876" 
d="M778 102h62v-102h-258v102h62v501l-169 -603h-92l-163 595v-493h43v-102h-227v102h61v505h-61v102h280l121 -460l118 460h285v-102h-62v-505z" />
    <glyph glyph-name="uni041D" unicode="&#x41d;" horiz-adv-x="703" 
d="M605 102h62v-102h-268v102h62v214h-219v-214h62v-102h-268v102h62v505h-62v102h268v-102h-62v-189h219v189h-62v102h268v-102h-62v-505z" />
    <glyph glyph-name="uni041E" unicode="&#x41e;" horiz-adv-x="653" 
d="M617 354q0 -113 -34 -196.5t-99.5 -128t-156.5 -44.5q-92 0 -157.5 44.5t-99.5 128t-34 196.5q0 114 34 197t99.5 128t157.5 45q91 0 156.5 -45t99.5 -128.5t34 -196.5zM190 354q0 -124 36 -189t101 -65t100.5 65t35.5 189q0 125 -35.5 190t-100.5 65t-101 -65t-36 -190z
" />
    <glyph glyph-name="uni041F" unicode="&#x41f;" horiz-adv-x="686" 
d="M650 102v-102h-268v102h62v505h-202v-505h62v-102h-268v102h62v505h-62v102h614v-102h-62v-505h62z" />
    <glyph glyph-name="uni0420" unicode="&#x420;" horiz-adv-x="581" 
d="M565 495q0 -105 -63 -162t-171 -57h-89v-174h70v-102h-276v102h62v505h-62v102h295q108 0 171 -55t63 -159zM421 493q0 57 -29 85.5t-84 28.5h-66v-229h66q55 0 84 29t29 86z" />
    <glyph glyph-name="uni0421" unicode="&#x421;" horiz-adv-x="610" 
d="M576 489l-117 -15q-14 64 -44 99.5t-83 35.5q-142 0 -142 -255q0 -122 35 -185.5t106 -63.5q63 0 93 44t38 126l120 -10q-3 -134 -67.5 -207t-186.5 -73q-148 0 -220 98.5t-72 270.5q0 117 35.5 200t101.5 126.5t157 43.5q124 0 183 -68t63 -167z" />
    <glyph glyph-name="uni0422" unicode="&#x422;" horiz-adv-x="630" 
d="M484 475l-10 132h-87v-505h68v-102h-280v102h68v505h-87l-10 -132h-113v234h564v-234h-113z" />
    <glyph glyph-name="uni0423" unicode="&#x423;" horiz-adv-x="622" 
d="M606 607h-46l-197 -475q-26 -61 -55 -92t-59.5 -40.5t-71.5 -9.5q-26 0 -49.5 4t-35.5 9v107q25 -5 56 -5q32 0 60 10t46 46l-190 446h-48v102h244v-102h-51l110 -280l108 280h-49v102h228v-102z" />
    <glyph glyph-name="uni0424" unicode="&#x424;" horiz-adv-x="754" 
d="M448 129v-63h63v-96h-268v96h63v63q-138 13 -211.5 72.5t-73.5 158.5t73.5 158.5t211.5 72.5v52h-63v96h268v-96h-63v-52q138 -13 211.5 -72.5t73.5 -158.5t-73.5 -158.5t-211.5 -72.5zM448 493v-266q149 21 149 133t-149 133zM306 228v264q-147 -20 -147 -132t147 -132z
" />
    <glyph glyph-name="uni0425" unicode="&#x425;" horiz-adv-x="652" 
d="M632 0h-259v102h59l-110 190l-111 -190h55v-102h-246v102h44l176 261l-161 244h-44v102h249v-102h-53l101 -171l102 171h-51v102h238v-102h-44l-163 -242l172 -263h46v-102z" />
    <glyph glyph-name="uni0427" unicode="&#x427;" horiz-adv-x="677" 
d="M579 102h62v-102h-276v102h70v190q-63 -37 -141 -37q-92 0 -147 47.5t-55 147.5v157h-60v102h266v-102h-62v-133q0 -55 24.5 -78.5t77.5 -23.5q58 0 97 19v216h-62v102h268v-102h-62v-505z" />
    <glyph glyph-name="uni0426" unicode="&#x426;" horiz-adv-x="713" 
d="M677 -137h-113l-10 137h-518v102h62v505h-62v102h268v-102h-62v-505h209v505h-62v102h268v-102h-62v-505h82v-239z" />
    <glyph glyph-name="uni0428" unicode="&#x428;" horiz-adv-x="978" 
d="M942 102v-102h-906v102h62v505h-62v102h263v-102h-57v-505h175v505h-57v102h258v-102h-57v-505h175v505h-57v102h263v-102h-62v-505h62z" />
    <glyph glyph-name="uni0429" unicode="&#x429;" horiz-adv-x="999" 
d="M962 -137h-113l-10 137h-803v102h62v505h-62v102h263v-102h-57v-505h175v505h-57v102h258v-102h-57v-505h175v505h-57v102h263v-102h-62v-505h82v-239z" />
    <glyph glyph-name="uni042F" unicode="&#x42f;" horiz-adv-x="620" 
d="M522 102h62v-102h-268v102h62v258l-222 -360h-135v102h50l139 212q-72 15 -118 65.5t-46 131.5q0 98 63.5 148t166.5 50h308v-102h-62v-505zM188 503q0 -51 30.5 -77.5t83.5 -26.5h76v208h-76q-53 0 -83.5 -26.5t-30.5 -77.5z" />
    <glyph glyph-name="uni042C" unicode="&#x42c;" horiz-adv-x="594" 
d="M578 216q0 -101 -64 -158.5t-169 -57.5h-309v102h62v505h-62v102h278v-102h-72v-174h103q105 0 169 -58t64 -159zM434 216q0 54 -29 84.5t-83 30.5h-80v-229h80q52 0 82 30.5t30 83.5z" />
    <glyph glyph-name="uni042A" unicode="&#x42a;" horiz-adv-x="732" 
d="M716 216q0 -101 -64 -158.5t-169 -57.5h-310v102h62v505h-79l-10 -122h-113v224h418v-102h-72v-174h104q105 0 169 -58t64 -159zM572 216q0 54 -29 84.5t-83 30.5h-81v-229h81q52 0 82 30.5t30 83.5z" />
    <glyph glyph-name="uni042B" unicode="&#x42b;" horiz-adv-x="934" 
d="M578 216q0 -101 -64 -158.5t-169 -57.5h-309v102h62v505h-62v102h278v-102h-72v-174h103q105 0 169 -58t64 -159zM434 216q0 54 -29 84.5t-83 30.5h-80v-229h80q52 0 82 30.5t30 83.5zM898 102v-102h-268v102h62v505h-62v102h268v-102h-62v-505h62z" />
    <glyph glyph-name="uni042D" unicode="&#x42d;" horiz-adv-x="614" 
d="M578 355q0 -180 -71 -275t-209 -95q-126 0 -190.5 67.5t-72.5 167.5l116 15q11 -62 45.5 -98.5t93.5 -36.5q120 0 133 207h-209v106h208q-13 196 -132 196q-59 0 -93.5 -36.5t-45.5 -98.5l-116 15q8 100 72.5 167.5t190.5 67.5q140 0 210 -94t70 -275z" />
    <glyph glyph-name="uni0406" unicode="&#x406;" horiz-adv-x="340" 
d="M304 102v-102h-268v102h62v505h-62v102h268v-102h-62v-505h62z" />
    <glyph glyph-name="uni042E" unicode="&#x42e;" horiz-adv-x="936" 
d="M900 354q0 -174 -70 -271.5t-205 -97.5q-129 0 -198.5 87.5t-76.5 245.5h-108v-216h62v-102h-268v102h62v505h-62v102h268v-102h-62v-191h109q12 147 81.5 227.5t192.5 80.5q135 0 205 -98t70 -272zM746 354q0 128 -29.5 191.5t-91.5 63.5q-63 0 -92.5 -63.5
t-29.5 -191.5t29.5 -191t92.5 -63q62 0 91.5 63t29.5 191z" />
    <glyph glyph-name="uni0492" unicode="&#x492;" horiz-adv-x="546" 
d="M513 485h-113l-10 122h-142v-197h115v-106h-115v-202h67v-102h-273v102h62v202h-94v106h94v197h-62v102h471v-224z" />
    <glyph glyph-name="uni049A" unicode="&#x49a;" horiz-adv-x="677" 
d="M651 -137h-113l-10 137h-58l-228 356v-254h62v-102h-268v102h62v505h-62v102h268v-102h-62v-228l183 228h-42v102h241v-102h-51l-189 -223l186 -282h81v-239z" />
    <glyph glyph-name="uni04A2" unicode="&#x4a2;" horiz-adv-x="713" 
d="M687 -137h-113l-10 137h-165v102h62v214h-219v-214h62v-102h-268v102h62v505h-62v102h268v-102h-62v-189h219v189h-62v102h268v-102h-62v-505h82v-239z" />
    <glyph glyph-name="uni04AE" unicode="&#x4ae;" horiz-adv-x="599" 
d="M583 607h-44l-166 -315v-190h65v-102h-274v102h65v188l-165 317h-48v102h245v-102h-48l97 -199l95 199h-45v102h223v-102z" />
    <glyph glyph-name="uni04B0" unicode="&#x4b0;" horiz-adv-x="599" 
d="M583 607h-44l-166 -315v-11h120v-106h-120v-73h65v-102h-274v102h65v73h-123v106h123v9l-165 317h-48v102h245v-102h-48l97 -199l95 199h-45v102h223v-102z" />
    <glyph glyph-name="uni04BA" unicode="&#x4ba;" horiz-adv-x="684" 
d="M652 0h-266v102h62v140q0 60 -24.5 89.5t-77.5 29.5q-59 0 -104 -33v-226h62v-102h-268v102h62v505h-62v102h276v-102h-70v-184q63 56 152 56q87 0 142.5 -53t55.5 -154v-170h60v-102z" />
    <glyph glyph-name="uni04D8" unicode="&#x4d8;" horiz-adv-x="631" 
d="M595 364q0 -110 -31 -195t-96 -134.5t-163 -49.5q-130 0 -199.5 84.5t-69.5 245.5q0 17 2 57h403q-1 117 -33 177t-102 60q-54 0 -88.5 -35.5t-47.5 -96.5l-118 16q3 61 32 113.5t86 85t140 32.5q138 0 211.5 -94.5t73.5 -265.5zM436 270h-261q5 -79 36.5 -124.5
t92.5 -45.5q59 0 91 43t41 127z" />
    <glyph glyph-name="uni04E8" unicode="&#x4e8;" horiz-adv-x="653" 
d="M617 354q0 -113 -34 -196.5t-99.5 -128t-156.5 -44.5q-92 0 -157.5 44.5t-99.5 128t-34 196.5q0 114 34 197t99.5 128t157.5 45q91 0 156.5 -45t99.5 -128.5t34 -196.5zM192 412h269q-8 97 -43 147t-91 50q-58 0 -92.5 -50t-42.5 -147zM461 307h-270q7 -102 42 -154.5
t94 -52.5q58 0 92.5 52.5t41.5 154.5z" />
    <glyph glyph-name="uni0430" unicode="&#x430;" horiz-adv-x="525" 
d="M510 0h-61q-55 0 -76.5 14t-30.5 52q-23 -36 -63 -56.5t-93 -20.5q-72 0 -116 38t-44 107q0 65 38 104.5t115 63.5l83 26q39 12 54 26.5t15 39.5q0 28 -18.5 44t-52.5 16q-81 0 -104 -95l-106 16q3 83 56.5 130.5t154.5 47.5q202 0 202 -175v-242q0 -23 6.5 -30.5
t25.5 -7.5h15v-98zM331 143v122l-70 -27q-55 -21 -76.5 -41.5t-21.5 -48.5q0 -25 16.5 -39t48.5 -14q27 0 55 12.5t48 35.5z" />
    <glyph glyph-name="uni0431" unicode="&#x431;" horiz-adv-x="561" 
d="M535 251q0 -80 -30.5 -140.5t-86 -93t-128.5 -32.5q-123 0 -190.5 83.5t-67.5 251.5q0 159 55 238t163 109l37 10q46 13 65 19.5t30 16t13 25.5l116 -6q0 -56 -18 -86t-58 -46t-120 -32q-59 -11 -93.5 -31t-51.5 -56t-20 -96q14 42 60 74t113 32q103 0 157.5 -67
t54.5 -173zM392 242q0 60 -25 97t-79 37q-46 0 -78 -35.5t-32 -99.5q0 -63 26 -105.5t82 -42.5q51 0 78.5 40.5t27.5 108.5z" />
    <glyph glyph-name="uni0432" unicode="&#x432;" horiz-adv-x="530" 
d="M504 150q0 -71 -47.5 -110.5t-135.5 -39.5h-287v98h53v342h-53v98h295q68 0 113.5 -34.5t45.5 -98.5q0 -91 -88 -120q104 -28 104 -135zM291 325q34 0 51.5 15t17.5 44q0 27 -18 41.5t-51 14.5h-74v-115h74zM371 164q0 30 -21.5 48t-59.5 18h-73v-132h73q39 0 60 17
t21 49z" />
    <glyph glyph-name="uni0433" unicode="&#x433;" horiz-adv-x="466" 
d="M440 321h-102l-10 119h-105v-342h57v-98h-246v98h52v342h-52v98h406v-217z" />
    <glyph glyph-name="uni0491" unicode="&#x491;" horiz-adv-x="444" 
d="M223 98h57v-98h-246v98h52v342h-52v98h277l10 119h102v-217h-200v-342z" />
    <glyph glyph-name="uni0434" unicode="&#x434;" horiz-adv-x="616" 
d="M590 -119h-102l-10 119h-340l-10 -119h-102v217h8q36 0 57.5 18t36 75.5t22.5 173.5l5 75h-64v98h484v-98h-52v-342h67v-217zM277 440l-6 -89q-6 -102 -16 -162t-26 -91h157v342h-109z" />
    <glyph glyph-name="uni0435" unicode="&#x435;" horiz-adv-x="519" 
d="M488 244h-323q4 -75 32.5 -115.5t80.5 -40.5q40 0 62.5 21.5t34.5 65.5l104 -17q-8 -84 -60 -128.5t-143 -44.5q-127 0 -188.5 77.5t-61.5 203.5q0 132 61.5 209.5t182.5 77.5q112 0 166.5 -69.5t54.5 -176.5q0 -36 -3 -63zM167 330h191q-3 62 -25 92t-67 30
q-84 0 -99 -122z" />
    <glyph glyph-name="uni0451" unicode="&#x451;" horiz-adv-x="519" 
d="M488 244h-323q4 -75 32.5 -115.5t80.5 -40.5q40 0 62.5 21.5t34.5 65.5l104 -17q-8 -84 -60 -128.5t-143 -44.5q-127 0 -188.5 77.5t-61.5 203.5q0 132 61.5 209.5t182.5 77.5q112 0 166.5 -69.5t54.5 -176.5q0 -36 -3 -63zM167 330h191q-3 62 -25 92t-67 30
q-84 0 -99 -122zM109 597v121h129v-121h-129zM314 597v121h129v-121h-129z" />
    <glyph glyph-name="uni0436" unicode="&#x436;" horiz-adv-x="801" 
d="M785 0h-136l-183 266v-168h39v-98h-214v98h44v168l-183 -266h-136v98h51l136 186l-149 156h-33v98h204v-98h-36l146 -158v158h-43v98h214v-98h-40v-158l146 158h-36v98h204v-98h-33l-149 -156l136 -186h51v-98z" />
    <glyph glyph-name="uni0437" unicode="&#x437;" horiz-adv-x="485" 
d="M457 156q0 -77 -55.5 -122.5t-160.5 -45.5q-109 0 -166.5 46.5t-58.5 138.5l113 13q5 -41 31 -69t78 -28q44 0 67 18.5t23 51.5q0 72 -121 72h-24v92h23q60 0 86.5 17.5t26.5 51.5q0 28 -20 44.5t-59 16.5q-83 0 -104 -95l-107 16q5 75 56 126.5t161 51.5
q104 0 153 -44.5t49 -108.5q0 -47 -22.5 -76t-61.5 -42q44 -15 68.5 -46.5t24.5 -78.5z" />
    <glyph glyph-name="uni0438" unicode="&#x438;" horiz-adv-x="615" 
d="M530 98h52v-98h-222v98h45v262l-182 -360h-189v98h52v342h-52v98h222v-98h-45v-262l182 360h189v-98h-52v-342z" />
    <glyph glyph-name="uni0439" unicode="&#x439;" horiz-adv-x="615" 
d="M530 98h52v-98h-222v98h45v262l-182 -360h-189v98h52v342h-52v98h222v-98h-45v-262l182 360h189v-98h-52v-342zM315 584q-78 0 -122.5 39.5t-44.5 108.5h97q0 -33 18 -52t52 -19t52 19t18 52h97q0 -69 -45 -108.5t-122 -39.5z" />
    <glyph glyph-name="uni043A" unicode="&#x43a;" horiz-adv-x="563" 
d="M553 0h-137l-193 268v-170h47v-98h-236v98h52v342h-52v98h236v-98h-47v-158l154 158h-33v98h204v-98h-36l-158 -155l144 -187h55v-98z" />
    <glyph glyph-name="uni043B" unicode="&#x43b;" horiz-adv-x="599" 
d="M510 98h52v-98h-240v98h51v342h-106l-5 -89q-9 -144 -21 -213.5t-45.5 -107t-104.5 -37.5q-24 0 -45 3t-30 6v105q9 -1 21 -1q36 0 55 18.5t30 70.5t18 159l6 86h-67v98h483v-98h-52v-342z" />
    <glyph glyph-name="uni043C" unicode="&#x43c;" horiz-adv-x="778" 
d="M692 98h52v-98h-229v98h49v314l-144 -412h-78l-138 410v-312h49v-98h-219v98h51v342h-51v98h240l111 -336l115 336h244v-98h-52v-342z" />
    <glyph glyph-name="uni043D" unicode="&#x43d;" horiz-adv-x="602" 
d="M516 98h52v-98h-234v98h45v133h-156v-133h45v-98h-234v98h52v342h-52v98h234v-98h-45v-111h156v111h-45v98h234v-98h-52v-342z" />
    <glyph glyph-name="uni043E" unicode="&#x43e;" horiz-adv-x="540" 
d="M514 269q0 -130 -64.5 -207t-179.5 -77t-179.5 77t-64.5 207t64.5 207t179.5 77t179.5 -77t64.5 -207zM169 269q0 -90 26.5 -133t74.5 -43q101 0 101 176t-101 176q-48 0 -74.5 -43t-26.5 -133z" />
    <glyph glyph-name="uni043F" unicode="&#x43f;" horiz-adv-x="600" 
d="M566 98v-98h-236v98h47v342h-154v-342h47v-98h-236v98h52v342h-52v98h532v-98h-52v-342h52z" />
    <glyph glyph-name="uni0440" unicode="&#x440;" horiz-adv-x="570" 
d="M544 269q0 -129 -52 -206.5t-145 -77.5q-80 0 -130 61v-148h55v-98h-247v98h55v542h-55v98h180v-61q23 36 60 56t82 20q93 0 145 -77.5t52 -206.5zM401 269q0 87 -26.5 131t-77.5 44q-46 0 -80 -31v-288q34 -31 80 -31q51 0 77.5 44t26.5 131z" />
    <glyph glyph-name="uni0441" unicode="&#x441;" horiz-adv-x="503" 
d="M481 370l-105 -15q-13 45 -37.5 68t-64.5 23q-52 0 -78.5 -45.5t-26.5 -131.5q0 -174 105 -174q46 0 69.5 30t31.5 92l111 -14q-3 -101 -56 -159.5t-163 -58.5q-131 0 -186 81t-55 203q0 75 24 139t79 104.5t142 40.5q98 0 151.5 -49.5t58.5 -133.5z" />
    <glyph glyph-name="uni0442" unicode="&#x442;" horiz-adv-x="561" 
d="M428 321l-10 119h-69v-342h52v-98h-241v98h52v342h-69l-10 -119h-102v217h499v-217h-102z" />
    <glyph glyph-name="uni0443" unicode="&#x443;" horiz-adv-x="556" 
d="M498 440l-187 -533q-24 -69 -63.5 -94t-97.5 -25q-23 0 -43.5 4t-30.5 8v96q23 -4 51 -4q31 0 49.5 13.5t30.5 47.5l14 39l-163 448h-43v98h232v-98h-50l87 -289l90 289h-45v98h212v-98h-43z" />
    <glyph glyph-name="uni0444" unicode="&#x444;" horiz-adv-x="769" 
d="M743 269q0 -84 -22.5 -147.5t-65 -98.5t-100.5 -35q-65 0 -102 43v-133h55v-98h-247v98h55v133q-37 -43 -102 -43q-58 0 -100.5 35t-65 98.5t-22.5 147.5t22.5 147.5t65 98.5t100.5 35q64 0 102 -41v131h-55v98h192v-229q38 41 102 41q58 0 100.5 -35t65 -98.5
t22.5 -147.5zM316 112v314q-24 18 -55 18q-92 0 -92 -175t92 -175q31 0 55 18zM600 269q0 175 -92 175q-31 0 -55 -18v-314q24 -18 55 -18q92 0 92 175z" />
    <glyph glyph-name="uni0445" unicode="&#x445;" horiz-adv-x="562" 
d="M542 0h-235v98h48l-79 113l-82 -113h49v-98h-223v98h41l141 178l-129 164h-43v98h230v-98h-46l75 -103l73 103h-45v98h219v-98h-44l-130 -166l137 -176h43v-98z" />
    <glyph glyph-name="uni0447" unicode="&#x447;" horiz-adv-x="603" 
d="M514 98h55v-98h-254v98h62v106q-53 -35 -130 -35q-71 0 -122 40.5t-51 126.5v104h-53v98h245v-98h-55v-83q0 -47 23 -65.5t66 -18.5t77 14v153h-55v98h247v-98h-55v-342z" />
    <glyph glyph-name="uni0446" unicode="&#x446;" horiz-adv-x="623" 
d="M589 -119h-102l-10 119h-443v98h52v342h-52v98h234v-98h-45v-342h162v342h-45v98h234v-98h-52v-342h67v-217z" />
    <glyph glyph-name="uni0448" unicode="&#x448;" horiz-adv-x="885" 
d="M852 98v-98h-818v98h52v342h-52v98h234v-98h-45v-342h152v342h-45v98h227v-98h-45v-342h151v342h-45v98h234v-98h-52v-342h52z" />
    <glyph glyph-name="uni0449" unicode="&#x449;" horiz-adv-x="897" 
d="M867 -119h-102l-10 119h-721v98h52v342h-52v98h234v-98h-45v-342h152v342h-45v98h227v-98h-45v-342h151v342h-45v98h234v-98h-52v-342h67v-217z" />
    <glyph glyph-name="uni044F" unicode="&#x44f;" horiz-adv-x="533" 
d="M447 98h52v-98h-232v98h43v163l-167 -261h-127v98h50l91 126q-54 16 -86.5 54.5t-32.5 98.5q0 81 53 121t143 40h265v-98h-52v-342zM173 368q0 -31 23.5 -51t62.5 -20h51v143h-51q-39 0 -62.5 -20t-23.5 -52z" />
    <glyph glyph-name="uni044C" unicode="&#x44c;" horiz-adv-x="506" 
d="M490 167q0 -78 -49 -122.5t-138 -44.5h-269v98h52v342h-52v98h248v-98h-59v-107h80q89 0 138 -44t49 -122zM358 166q0 33 -20.5 51t-54.5 18h-60v-137h60q35 0 55 17.5t20 50.5z" />
    <glyph glyph-name="uni044A" unicode="&#x44a;" horiz-adv-x="626" 
d="M604 167q0 -78 -49 -122.5t-138 -44.5h-269v98h52v342h-62l-10 -119h-102v217h370v-98h-59v-107h80q89 0 138 -44t49 -122zM472 166q0 33 -20.5 51t-54.5 18h-60v-137h60q35 0 55 17.5t20 50.5z" />
    <glyph glyph-name="uni044B" unicode="&#x44b;" horiz-adv-x="769" 
d="M471 167q0 -77 -49 -122t-136 -45h-252v98h52v342h-52v98h248v-98h-59v-110h63q87 0 136 -43.5t49 -119.5zM684 98h52v-98h-241v98h52v342h-52v98h241v-98h-52v-342zM349 166q0 33 -20 51t-56 18h-50v-137h50q36 0 56 17.5t20 50.5z" />
    <glyph glyph-name="uni044D" unicode="&#x44d;" horiz-adv-x="507" 
d="M481 269q0 -122 -57 -202.5t-182 -80.5q-101 0 -155.5 50t-62.5 133l108 15q24 -91 104 -91q45 0 69.5 31.5t30.5 98.5h-148v98h148q-7 64 -31.5 94.5t-68.5 30.5q-80 0 -104 -91l-108 15q8 83 62.5 133t155.5 50q125 0 182 -80.5t57 -203.5z" />
    <glyph glyph-name="uni0456" unicode="&#x456;" horiz-adv-x="301" 
d="M34 0v98h52v342h-52v98h189v-440h52v-98h-241zM74 617v121h149v-121h-149z" />
    <glyph glyph-name="uni044E" unicode="&#x44e;" horiz-adv-x="794" 
d="M768 269q0 -130 -63 -207t-174 -77q-103 0 -164 66.5t-70 180.5h-74v-134h52v-98h-241v98h52v342h-52v98h241v-98h-52v-115h76q13 106 73.5 167t158.5 61q111 0 174 -77t63 -207zM625 269q0 176 -94 176q-45 0 -70.5 -43t-25.5 -133t25.5 -133t70.5 -43q94 0 94 176z" />
    <glyph glyph-name="uni0493" unicode="&#x493;" horiz-adv-x="472" 
d="M446 321h-102l-10 119h-105v-134h92v-98h-92v-110h57v-98h-246v98h52v110h-72v98h72v134h-52v98h406v-217z" />
    <glyph glyph-name="uni049B" unicode="&#x49b;" horiz-adv-x="583" 
d="M567 -119h-102l-10 119h-39l-193 268v-170h47v-98h-236v98h52v342h-52v98h236v-98h-47v-158l154 158h-33v98h204v-98h-36l-158 -155l144 -187h69v-217z" />
    <glyph glyph-name="uni04A3" unicode="&#x4a3;" horiz-adv-x="613" 
d="M583 -119h-102l-10 119h-137v98h45v133h-156v-133h45v-98h-234v98h52v342h-52v98h234v-98h-45v-111h156v111h-45v98h234v-98h-52v-342h67v-217z" />
    <glyph glyph-name="uni04AF" unicode="&#x4af;" horiz-adv-x="558" 
d="M492 440l-146 -221v-121h45v-98h-234v98h52v118l-144 224h-44v98h229v-98h-49l84 -135l83 135h-49v98h218v-98h-45z" />
    <glyph glyph-name="uni04B1" unicode="&#x4b1;" horiz-adv-x="558" 
d="M537 440h-45l-131 -198h71v-98h-86v-46h45v-98h-234v98h52v46h-93v98h76l-127 198h-44v98h229v-98h-49l84 -135l83 135h-49v98h218v-98z" />
    <glyph glyph-name="uni04BB" unicode="&#x4bb;" horiz-adv-x="582" 
d="M567 0h-241v98h52v252q0 40 -24 61.5t-58 21.5q-47 0 -81 -36v-299h52v-98h-241v98h52v542h-52v98h189v-260q52 74 141 74q66 0 112.5 -40.5t46.5 -121.5v-292h52v-98z" />
    <glyph glyph-name="uni04D9" unicode="&#x4d9;" horiz-adv-x="519" 
d="M493 274q0 -132 -61.5 -210.5t-182.5 -78.5q-112 0 -166.5 71t-54.5 178q0 36 3 63h325q-2 74 -28 113.5t-83 39.5q-75 0 -96 -81l-111 15q9 80 65 124.5t150 44.5q240 0 240 -279zM352 211h-191q3 -64 25 -94.5t67 -30.5q83 0 99 125z" />
    <glyph glyph-name="uni04E9" unicode="&#x4e9;" horiz-adv-x="540" 
d="M514 269q0 -130 -64.5 -207t-179.5 -77t-179.5 77t-64.5 207t64.5 207t179.5 77t179.5 -77t64.5 -207zM171 317h198q-13 128 -99 128t-99 -128zM369 232h-199q10 -139 100 -139q89 0 99 139z" />
    <glyph glyph-name="periodcentered" horiz-adv-x="277" 
d="M60 265v153h157v-153h-157z" />
    </font>
</defs>
</svg>
